<?xml version="1.0" encoding="UTF-8" standalone="no"?>
<!-- Created with Inkscape (http://www.inkscape.org/) -->

<svg
   xmlns:dc="http://purl.org/dc/elements/1.1/"
   xmlns:cc="http://creativecommons.org/ns#"
   xmlns:rdf="http://www.w3.org/1999/02/22-rdf-syntax-ns#"
   xmlns:svg="http://www.w3.org/2000/svg"
   xmlns="http://www.w3.org/2000/svg"
   xmlns:sodipodi="http://sodipodi.sourceforge.net/DTD/sodipodi-0.dtd"
   xmlns:inkscape="http://www.inkscape.org/namespaces/inkscape"
   width="1371.8987"
   height="257.4108"
   viewBox="0 0 362.98152 68.106609"
   version="1.1"
   id="svg8"
   sodipodi:docname="appcentre-logo-raleway.svg"
   inkscape:version="0.92.4 (5da689c313, 2019-01-14)">
  <defs
     id="defs2" />
  <sodipodi:namedview
     id="base"
     pagecolor="#646464"
     bordercolor="#666666"
     borderopacity="1.0"
     inkscape:pageopacity="0"
     inkscape:pageshadow="2"
     inkscape:zoom="0.35"
     inkscape:cx="233.73652"
     inkscape:cy="-380.4427"
     inkscape:document-units="mm"
     inkscape:current-layer="layer1"
     showgrid="false"
     units="px"
     fit-margin-right="10"
     fit-margin-top="10"
     fit-margin-bottom="10"
     fit-margin-left="1"
     inkscape:window-width="3440"
     inkscape:window-height="1377"
     inkscape:window-x="-8"
     inkscape:window-y="-8"
     inkscape:window-maximized="1" />
  <metadata
     id="metadata5">
    <rdf:RDF>
      <cc:Work
         rdf:about="">
        <dc:format>image/svg+xml</dc:format>
        <dc:type
           rdf:resource="http://purl.org/dc/dcmitype/StillImage" />
        <dc:title></dc:title>
      </cc:Work>
    </rdf:RDF>
  </metadata>
  <g
     inkscape:label="Layer 1"
     inkscape:groupmode="layer"
     id="layer1"
     transform="translate(37.441772,-383.07396)">
    <flowRoot
       xml:space="preserve"
       id="flowRoot10"
       style="font-style:normal;font-variant:normal;font-weight:bold;font-stretch:normal;font-size:256.10665894px;line-height:1.25;font-family:Lato;-inkscape-font-specification:'Lato, Bold';font-variant-ligatures:normal;font-variant-caps:normal;font-variant-numeric:normal;font-feature-settings:normal;text-align:start;letter-spacing:0px;word-spacing:0px;writing-mode:lr-tb;text-anchor:start;fill:#000000;fill-opacity:1;stroke:none"
       transform="scale(0.26458333)"><flowRegion
         id="flowRegion12"><rect
           id="rect14"
           width="1651.4286"
           height="454.28571"
           x="-1557.1428"
           y="-648.90887" /></flowRegion><flowPara
         id="flowPara16" /></flowRoot>    <text
       xml:space="preserve"
       style="font-style:normal;font-variant:normal;font-weight:bold;font-stretch:normal;font-size:67.7615509px;line-height:1.25;font-family:Lato;-inkscape-font-specification:'Lato, Bold';font-variant-ligatures:normal;font-variant-caps:normal;font-variant-numeric:normal;font-feature-settings:normal;text-align:start;letter-spacing:0px;word-spacing:0px;writing-mode:lr-tb;text-anchor:start;fill:#000000;fill-opacity:1;stroke:none;stroke-width:0.26458332"
       x="-264.58334"
       y="-121.79762"
       id="text20"><tspan
         sodipodi:role="line"
         id="tspan18"
         x="-264.58334"
         y="-121.79762"
         style="font-style:normal;font-variant:normal;font-weight:900;font-stretch:normal;font-size:67.76155853px;font-family:'Montserrat Alternates Black';-inkscape-font-specification:'Montserrat Alternates Black, Heavy';font-variant-ligatures:normal;font-variant-caps:normal;font-variant-numeric:normal;font-feature-settings:normal;text-align:start;writing-mode:lr-tb;text-anchor:start;stroke-width:0.26458332">AppCentre</tspan></text>
    <flowRoot
       xml:space="preserve"
       id="flowRoot49"
       style="font-style:normal;font-variant:normal;font-weight:bold;font-stretch:normal;font-size:256.10665894px;line-height:1.25;font-family:Lato;-inkscape-font-specification:'Lato, Bold';font-variant-ligatures:normal;font-variant-caps:normal;font-variant-numeric:normal;font-feature-settings:normal;text-align:start;letter-spacing:0px;word-spacing:0px;writing-mode:lr-tb;text-anchor:start;fill:#000000;fill-opacity:1;stroke:none"><flowRegion
         id="flowRegion51"><rect
           id="rect53"
           width="1908.5714"
           height="502.85715"
           x="-211.42857"
           y="1082.5197" /></flowRegion><flowPara
         id="flowPara55" /></flowRoot>    <g
       aria-label="AppCentre"
       transform="scale(0.26458333)"
       style="font-style:normal;font-variant:normal;font-weight:bold;font-stretch:normal;font-size:256.10665894px;line-height:1.25;font-family:Lato;-inkscape-font-specification:'Lato, Bold';font-variant-ligatures:normal;font-variant-caps:normal;font-variant-numeric:normal;font-feature-settings:normal;text-align:start;letter-spacing:0px;word-spacing:0px;writing-mode:lr-tb;text-anchor:start;fill:#ffffff;fill-opacity:1;stroke:none"
       id="flowRoot73">
      <path
         d="m -82.376002,1458.863 h 55.831252 l 57.880105,181.8357 h -50.709119 l -11.012586,-35.5988 h -48.404159 l -10.756479,35.5988 h -50.965222 z m 44.050346,112.943 -16.13472,-64.0266 -16.903039,64.0266 z"
         style="font-style:normal;font-variant:normal;font-weight:900;font-stretch:normal;font-size:256.10665894px;font-family:Raleway;-inkscape-font-specification:'Raleway, Heavy';font-variant-ligatures:normal;font-variant-caps:normal;font-variant-numeric:normal;font-feature-settings:normal;text-align:start;writing-mode:lr-tb;text-anchor:start;fill:#ffffff"
         id="path81"
         inkscape:connector-curvature="0" />
      <path
         d="m 134.02612,1643.2598 q -14.59808,0 -25.35456,-5.6344 -10.756479,-5.8904 -16.646932,-16.903 v 74.527 H 43.364363 v -189.2628 h 42.257599 v 20.2324 q 7.170986,-11.0125 17.671358,-16.903 10.75648,-5.8904 25.86677,-5.8904 13.57366,0 24.84235,5.1221 11.26869,5.1221 19.72021,14.5981 8.45152,9.4759 13.06144,22.0251 4.60992,12.5493 4.60992,27.6596 0,20.2324 -7.42709,36.111 -7.42709,15.8786 -20.48853,25.0985 -12.80534,9.2198 -29.45227,9.2198 z m -16.90304,-40.9771 q 5.37824,0 9.73205,-2.3049 4.60992,-2.305 7.93931,-6.4027 3.32939,-4.0977 5.12213,-9.4759 1.79275,-5.3783 1.79275,-11.5248 0,-6.4027 -2.04885,-11.5248 -1.79275,-5.1222 -5.37824,-8.7077 -3.5855,-3.8416 -8.45152,-5.8904 -4.86603,-2.0489 -10.75648,-2.0489 -3.32939,0 -6.65878,1.0244 -3.07328,0.7684 -5.89045,2.5611 -2.817172,1.5367 -5.634345,4.0977 -2.561067,2.5611 -4.866027,6.1466 v 23.3057 q 2.30496,5.8904 6.14656,10.7565 4.097702,4.6099 8.963732,7.4271 4.86603,2.561 9.98816,2.561 z"
         style="font-style:normal;font-variant:normal;font-weight:900;font-stretch:normal;font-size:256.10665894px;font-family:Raleway;-inkscape-font-specification:'Raleway, Heavy';font-variant-ligatures:normal;font-variant-caps:normal;font-variant-numeric:normal;font-feature-settings:normal;text-align:start;writing-mode:lr-tb;text-anchor:start;fill:#ffffff"
         id="path83"
         inkscape:connector-curvature="0" />
      <path
         d="m 299.59507,1643.2598 q -14.59807,0 -25.35455,-5.6344 -10.75648,-5.8904 -16.64694,-16.903 v 74.527 h -48.66026 v -189.2628 h 42.2576 v 20.2324 q 7.17098,-11.0125 17.67136,-16.903 10.75648,-5.8904 25.86677,-5.8904 13.57365,0 24.84234,5.1221 11.2687,5.1221 19.72022,14.5981 8.45152,9.4759 13.06144,22.0251 4.60992,12.5493 4.60992,27.6596 0,20.2324 -7.4271,36.111 -7.42709,15.8786 -20.48853,25.0985 -12.80533,9.2198 -29.45227,9.2198 z m -16.90303,-40.9771 q 5.37823,0 9.73205,-2.3049 4.60992,-2.305 7.9393,-6.4027 3.32939,-4.0977 5.12214,-9.4759 1.79274,-5.3783 1.79274,-11.5248 0,-6.4027 -2.04885,-11.5248 -1.79275,-5.1222 -5.37824,-8.7077 -3.58549,-3.8416 -8.45152,-5.8904 -4.86602,-2.0489 -10.75648,-2.0489 -3.32938,0 -6.65877,1.0244 -3.07328,0.7684 -5.89045,2.5611 -2.81718,1.5367 -5.63435,4.0977 -2.56107,2.5611 -4.86603,6.1466 v 23.3057 q 2.30496,5.8904 6.14656,10.7565 4.09771,4.6099 8.96374,7.4271 4.86602,2.561 9.98816,2.561 z"
         style="font-style:normal;font-variant:normal;font-weight:900;font-stretch:normal;font-size:256.10665894px;font-family:Raleway;-inkscape-font-specification:'Raleway, Heavy';font-variant-ligatures:normal;font-variant-caps:normal;font-variant-numeric:normal;font-feature-settings:normal;text-align:start;writing-mode:lr-tb;text-anchor:start;fill:#ffffff"
         id="path85"
         inkscape:connector-curvature="0" />
      <path
         d="m 367.84351,1548.2442 q 0,-16.6469 6.14656,-32.5255 6.40267,-16.1347 18.43968,-29.1962 12.03702,-13.0614 29.19616,-20.7446 17.41526,-7.9393 39.18432,-7.9393 26.12288,0 45.58699,11.0126 19.4641,10.7564 28.94005,28.6839 l -38.15989,27.1473 q -3.32939,-8.9637 -9.73206,-13.8298 -6.14656,-4.866 -13.57365,-6.6587 -7.17099,-2.0489 -14.08587,-2.0489 -10.75648,0 -18.69578,4.3538 -7.6832,4.0977 -12.80533,11.0126 -4.86603,6.9149 -7.4271,15.3664 -2.30496,8.4515 -2.30496,16.9031 0,9.4759 2.81718,18.1835 2.81717,8.7077 8.19541,15.6225 5.37824,6.6588 13.06144,10.5004 7.9393,3.8416 17.67136,3.8416 6.91488,0 14.08586,-2.0488 7.17099,-2.305 13.06144,-7.171 5.89046,-4.8661 8.96374,-13.0615 l 40.72096,24.3302 q -5.37824,13.3175 -17.92747,22.7935 -12.54923,9.4759 -28.42784,14.598 -15.87861,4.8661 -31.50112,4.8661 -20.23242,0 -37.13546,-7.9393 -16.64694,-8.1955 -28.94006,-21.513 -12.03701,-13.5737 -18.69578,-30.2206 -6.65878,-16.903 -6.65878,-34.3183 z"
         style="font-style:normal;font-variant:normal;font-weight:900;font-stretch:normal;font-size:256.10665894px;font-family:Raleway;-inkscape-font-specification:'Raleway, Heavy';font-variant-ligatures:normal;font-variant-caps:normal;font-variant-numeric:normal;font-feature-settings:normal;text-align:start;writing-mode:lr-tb;text-anchor:start;fill:#ffffff"
         id="path87"
         inkscape:connector-curvature="0" />
      <path
         d="m 616.40703,1643.2598 q -17.67136,0 -31.50112,-5.3782 -13.82976,-5.6344 -23.3057,-15.1103 -9.21984,-9.476 -14.08587,-21.7691 -4.86603,-12.2931 -4.86603,-25.8668 0,-19.4641 8.45152,-35.5988 8.45152,-16.3908 24.84235,-26.1229 16.39083,-9.9881 40.46485,-9.9881 24.07403,0 40.46485,9.732 16.39083,9.7321 24.84235,25.6107 8.45152,15.8786 8.45152,34.5744 0,3.8416 -0.51221,7.9393 -0.25611,3.8416 -0.76832,6.9149 h -94.50336 q 0.51221,7.1709 3.8416,11.7809 3.58549,4.3538 8.70763,6.4026 5.37824,2.0489 11.01258,2.0489 7.93931,0 14.85419,-3.5855 7.17098,-3.5855 9.47594,-9.9882 l 41.23318,11.7809 q -5.37824,10.7565 -15.1103,18.9519 -9.47594,8.1954 -22.53738,13.0615 -13.06144,4.6099 -29.45227,4.6099 z m -23.0496,-84.2591 h 44.56256 q -0.76832,-6.6588 -3.8416,-11.2687 -2.81717,-4.6099 -7.6832,-7.171 -4.60992,-2.561 -10.75648,-2.561 -6.14656,0 -11.01258,2.561 -4.60992,2.5611 -7.6832,7.171 -2.81718,4.6099 -3.5855,11.2687 z"
         style="font-style:normal;font-variant:normal;font-weight:900;font-stretch:normal;font-size:256.10665894px;font-family:Raleway;-inkscape-font-specification:'Raleway, Heavy';font-variant-ligatures:normal;font-variant-caps:normal;font-variant-numeric:normal;font-feature-settings:normal;text-align:start;writing-mode:lr-tb;text-anchor:start;fill:#ffffff"
         id="path89"
         inkscape:connector-curvature="0" />
      <path
         d="m 841.62083,1640.6987 h -48.66026 v -75.8075 q 0,-9.9882 -4.60992,-14.342 -4.35382,-4.6099 -10.24427,-4.6099 -4.09771,0 -8.70763,2.561 -4.60992,2.305 -8.45152,6.6588 -3.8416,4.3538 -6.14656,9.9882 v 75.5514 h -48.66026 v -134.7121 h 43.79424 v 19.9763 q 4.86602,-7.4271 12.29312,-12.2931 7.42709,-5.1221 17.15914,-7.6832 9.73206,-2.561 21.25686,-2.561 13.82976,0 22.02517,4.866 8.19541,4.866 12.29312,12.5492 4.09771,7.6832 5.37824,16.1347 1.28053,8.1954 1.28053,15.1103 z"
         style="font-style:normal;font-variant:normal;font-weight:900;font-stretch:normal;font-size:256.10665894px;font-family:Raleway;-inkscape-font-specification:'Raleway, Heavy';font-variant-ligatures:normal;font-variant-caps:normal;font-variant-numeric:normal;font-feature-settings:normal;text-align:start;writing-mode:lr-tb;text-anchor:start;fill:#ffffff"
         id="path91"
         inkscape:connector-curvature="0" />
      <path
         d="m 959.70999,1633.2716 q -6.65877,2.8172 -14.34197,5.3783 -7.4271,2.3049 -15.3664,3.5855 -7.6832,1.2805 -15.1103,1.2805 -11.01258,0 -20.23242,-3.5855 -9.21984,-3.8416 -14.85419,-12.2931 -5.37824,-8.7076 -5.37824,-23.3057 v -61.7217 h -16.64693 v -36.6233 h 16.64693 v -42.2576 h 48.66027 v 42.2576 h 26.37898 v 36.6233 h -26.37898 v 44.5625 q 0,6.6588 2.81717,9.476 2.81717,2.561 7.6832,2.561 3.58549,0 8.19541,-1.2805 4.60992,-1.2805 9.21984,-3.0733 z"
         style="font-style:normal;font-variant:normal;font-weight:900;font-stretch:normal;font-size:256.10665894px;font-family:Raleway;-inkscape-font-specification:'Raleway, Heavy';font-variant-ligatures:normal;font-variant-caps:normal;font-variant-numeric:normal;font-feature-settings:normal;text-align:start;writing-mode:lr-tb;text-anchor:start;fill:#ffffff"
         id="path93"
         inkscape:connector-curvature="0" />
      <path
         d="m 1065.1819,1547.4759 q -14.0858,0 -25.6106,3.0733 -11.5248,3.0733 -17.1592,10.2442 v 79.9053 h -48.66024 v -134.7121 h 44.56254 v 25.6107 q 7.171,-13.5737 17.9275,-20.7447 10.7565,-7.427 22.7935,-7.427 2.8172,0 3.8416,0 1.2805,0 2.3049,0.2561 z"
         style="font-style:normal;font-variant:normal;font-weight:900;font-stretch:normal;font-size:256.10665894px;font-family:Raleway;-inkscape-font-specification:'Raleway, Heavy';font-variant-ligatures:normal;font-variant-caps:normal;font-variant-numeric:normal;font-feature-settings:normal;text-align:start;writing-mode:lr-tb;text-anchor:start;fill:#ffffff"
         id="path95"
         inkscape:connector-curvature="0" />
      <path
         d="m 1146.6278,1643.2598 q -17.6714,0 -31.5011,-5.3782 -13.8298,-5.6344 -23.3057,-15.1103 -9.2199,-9.476 -14.0859,-21.7691 -4.866,-12.2931 -4.866,-25.8668 0,-19.4641 8.4515,-35.5988 8.4515,-16.3908 24.8423,-26.1229 16.3909,-9.9881 40.4649,-9.9881 24.074,0 40.4648,9.732 16.3909,9.7321 24.8424,25.6107 8.4515,15.8786 8.4515,34.5744 0,3.8416 -0.5122,7.9393 -0.2561,3.8416 -0.7683,6.9149 h -94.5034 q 0.5122,7.1709 3.8416,11.7809 3.5855,4.3538 8.7076,6.4026 5.3783,2.0489 11.0126,2.0489 7.9393,0 14.8542,-3.5855 7.171,-3.5855 9.476,-9.9882 l 41.2331,11.7809 q -5.3782,10.7565 -15.1103,18.9519 -9.4759,8.1954 -22.5373,13.0615 -13.0615,4.6099 -29.4523,4.6099 z m -23.0496,-84.2591 h 44.5626 q -0.7684,-6.6588 -3.8416,-11.2687 -2.8172,-4.6099 -7.6832,-7.171 -4.61,-2.561 -10.7565,-2.561 -6.1466,0 -11.0126,2.561 -4.6099,2.5611 -7.6832,7.171 -2.8172,4.6099 -3.5855,11.2687 z"
         style="font-style:normal;font-variant:normal;font-weight:900;font-stretch:normal;font-size:256.10665894px;font-family:Raleway;-inkscape-font-specification:'Raleway, Heavy';font-variant-ligatures:normal;font-variant-caps:normal;font-variant-numeric:normal;font-feature-settings:normal;text-align:start;writing-mode:lr-tb;text-anchor:start;fill:#ffffff"
         id="path97"
         inkscape:connector-curvature="0" />
    </g>
  </g>
</svg>
