<?xml version="1.0" encoding="UTF-8" standalone="no"?>
<!-- Created with Inkscape (http://www.inkscape.org/) -->

<svg
   xmlns:dc="http://purl.org/dc/elements/1.1/"
   xmlns:cc="http://creativecommons.org/ns#"
   xmlns:rdf="http://www.w3.org/1999/02/22-rdf-syntax-ns#"
   xmlns:svg="http://www.w3.org/2000/svg"
   xmlns="http://www.w3.org/2000/svg"
   xmlns:sodipodi="http://sodipodi.sourceforge.net/DTD/sodipodi-0.dtd"
   xmlns:inkscape="http://www.inkscape.org/namespaces/inkscape"
   width="943.66101"
   height="192.51199"
   viewBox="0 0 249.67697 50.935466"
   version="1.1"
   id="svg3727"
   inkscape:version="0.92.4 (5da689c313, 2019-01-14)"
   sodipodi:docname="appcentre-logo-lato.svg">
  <defs
     id="defs3721" />
  <sodipodi:namedview
     id="base"
     pagecolor="#646464"
     bordercolor="#666666"
     borderopacity="1.0"
     inkscape:pageopacity="0"
     inkscape:pageshadow="2"
     inkscape:zoom="0.35"
     inkscape:cx="3475.3417"
     inkscape:cy="-1313.5653"
     inkscape:document-units="mm"
     inkscape:current-layer="layer1"
     showgrid="false"
     units="px"
     fit-margin-top="10"
     fit-margin-left="10"
     fit-margin-right="10"
     fit-margin-bottom="10"
     inkscape:window-width="3440"
     inkscape:window-height="1377"
     inkscape:window-x="-8"
     inkscape:window-y="-8"
     inkscape:window-maximized="1" />
  <metadata
     id="metadata3724">
    <rdf:RDF>
      <cc:Work
         rdf:about="">
        <dc:format>image/svg+xml</dc:format>
        <dc:type
           rdf:resource="http://purl.org/dc/dcmitype/StillImage" />
        <dc:title></dc:title>
      </cc:Work>
    </rdf:RDF>
  </metadata>
  <g
     inkscape:label="Layer 1"
     inkscape:groupmode="layer"
     id="layer1"
     transform="translate(939.55022,249.64962)">
    <g
       style="font-style:normal;font-weight:normal;font-size:40px;line-height:1.25;font-family:sans-serif;letter-spacing:0px;word-spacing:0px;fill:#ffffff;fill-opacity:1;stroke:none"
       id="flowRoot3729" />
    <g
       aria-label="AppCentre"
       transform="scale(0.26458333)"
       style="font-style:normal;font-variant:normal;font-weight:bold;font-stretch:normal;font-size:192px;line-height:1.25;font-family:Lato;-inkscape-font-specification:'Lato, Bold';font-variant-ligatures:normal;font-variant-caps:normal;font-variant-numeric:normal;font-feature-settings:normal;text-align:start;letter-spacing:0px;word-spacing:0px;writing-mode:lr-tb;text-anchor:start;fill:#ffffff;fill-opacity:1;stroke:none"
       id="flowRoot3737">
      <path
         d="m -3451.2,-845.62163 -16.896,-46.176 q -1.248,-3.072 -2.592,-7.296 -1.344,-4.224 -2.688,-9.12 -1.248,4.896 -2.592,9.216 -1.344,4.224 -2.592,7.392 l -16.8,45.984 z m 45.6,52.416 h -19.968 q -3.36,0 -5.472,-1.63199 -2.112,-1.72801 -3.168,-4.22401 l -10.368,-28.32 h -57.504 l -10.368,28.32 q -0.768,2.208 -2.976,4.03201 -2.208,1.82399 -5.472,1.82399 h -20.16 l 54.624,-138.816 h 26.304 z"
         style=""
         id="path3746" />
      <path
         d="m -3371.076,-818.74163 q 4.032,4.896 8.736,6.912 4.8,2.01601 10.368,2.01601 5.376,0 9.696,-2.01601 4.32,-2.016 7.296,-6.144 3.072,-4.128 4.704,-10.368 1.632,-6.336 1.632,-14.88 0,-8.63999 -1.44,-14.59199 -1.344,-6.048 -3.936,-9.79201 -2.592,-3.744 -6.336,-5.472 -3.648,-1.728 -8.352,-1.728 -7.392,0 -12.576,3.168 -5.184,3.072 -9.792,8.736 z m -1.248,-59.52 q 6.048,-6.816 13.728,-11.04 7.68,-4.22399 18.048,-4.22399 8.064,0 14.688,3.35999 6.72,3.36 11.52,9.792 4.896,6.336 7.488,15.744 2.688,9.312 2.688,21.408 0,11.04 -2.976,20.448 -2.976,9.408 -8.544,16.32 -5.472,6.912 -13.344,10.848 -7.776,3.84001 -17.472,3.84001 -8.256,0 -14.112,-2.49601 -5.856,-2.592 -10.464,-7.104 v 40.32 h -23.712 v -130.656 h 14.496 q 4.608,0 6.048,4.32 z"
         style=""
         id="path3748" />
      <path
         d="m -3261.951,-818.74163 q 4.032,4.896 8.736,6.912 4.8,2.01601 10.368,2.01601 5.376,0 9.696,-2.01601 4.32,-2.016 7.296,-6.144 3.072,-4.128 4.704,-10.368 1.632,-6.336 1.632,-14.88 0,-8.63999 -1.44,-14.59199 -1.344,-6.048 -3.936,-9.79201 -2.592,-3.744 -6.336,-5.472 -3.648,-1.728 -8.352,-1.728 -7.392,0 -12.576,3.168 -5.184,3.072 -9.792,8.736 z m -1.248,-59.52 q 6.048,-6.816 13.728,-11.04 7.68,-4.22399 18.048,-4.22399 8.064,0 14.688,3.35999 6.72,3.36 11.52,9.792 4.896,6.336 7.488,15.744 2.688,9.312 2.688,21.408 0,11.04 -2.976,20.448 -2.976,9.408 -8.544,16.32 -5.472,6.912 -13.344,10.848 -7.776,3.84001 -17.472,3.84001 -8.256,0 -14.112,-2.49601 -5.856,-2.592 -10.464,-7.104 v 40.32 h -23.712 v -130.656 h 14.496 q 4.608,0 6.048,4.32 z"
         style=""
         id="path3750" />
      <path
         d="m -3077.841,-825.94163 q 2.112,0 3.744,1.632 l 10.176,11.04 q -8.448,10.464 -20.832,16.032 -12.288,5.568 -29.568,5.568 -15.456,0 -27.84,-5.28 -12.288,-5.28 -21.024,-14.688 -8.736,-9.408 -13.44,-22.464 -4.608,-13.056 -4.608,-28.512 0,-15.648 4.992,-28.608 4.992,-13.056 14.016,-22.464 9.12,-9.408 21.696,-14.592 12.576,-5.28 27.84,-5.28 15.168,0 26.88,4.992 11.808,4.99201 20.064,13.056 l -8.64,12 q -0.768,1.152 -2.016,2.016 -1.152,0.864 -3.264,0.864 -1.44,0 -2.976,-0.768 -1.536,-0.864 -3.36,-2.016 -1.824,-1.248 -4.224,-2.688 -2.4,-1.44 -5.568,-2.592 -3.168,-1.248 -7.392,-2.016 -4.128,-0.864 -9.6,-0.864 -9.312,0 -17.088,3.36 -7.68,3.264 -13.248,9.6 -5.568,6.24 -8.64,15.36 -3.072,9.024 -3.072,20.64 0,11.712 3.264,20.832 3.36,9.12 9.024,15.36 5.664,6.24 13.344,9.6 7.68,3.264 16.512,3.264 5.28,0 9.504,-0.576 4.32,-0.576 7.872,-1.82399 3.648,-1.24801 6.816,-3.16801 3.264,-2.016 6.432,-4.896 0.96,-0.86399 2.016,-1.344 1.056,-0.576 2.208,-0.576 z"
         style=""
         id="path3752" />
      <path
         d="m -2988.207,-853.78163 q 0,-4.608 -1.344,-8.64 -1.248,-4.128 -3.84,-7.19999 -2.592,-3.07201 -6.624,-4.80001 -3.936,-1.824 -9.216,-1.824 -10.272,0 -16.224,5.856 -5.856,5.856 -7.488,16.608 z m -45.216,14.304 q 0.576,7.584 2.688,13.152 2.112,5.472 5.568,9.12 3.456,3.552 8.16,5.376 4.8,1.728 10.56,1.728 5.76,0 9.888,-1.344 4.224,-1.344 7.296,-2.976 3.168,-1.63199 5.472,-2.976 2.4,-1.344 4.608,-1.344 2.976,0 4.416,2.208 l 6.816,8.64 q -3.936,4.608 -8.832,7.776 -4.896,3.072 -10.272,4.992 -5.28,1.824 -10.848,2.592 -5.472,0.76801 -10.656,0.76801 -10.272,0 -19.104,-3.36001 -8.832,-3.456 -15.36,-10.08 -6.528,-6.72 -10.272,-16.51199 -3.744,-9.88801 -3.744,-22.84801 0,-10.08 3.264,-18.91199 3.264,-8.92801 9.312,-15.45601 6.144,-6.624 14.88,-10.464 8.832,-3.84 19.872,-3.84 9.312,0 17.184,2.976 7.872,2.976 13.536,8.736 5.664,5.66401 8.832,14.016 3.264,8.256 3.264,18.912 0,5.376 -1.152,7.296 -1.152,1.824 -4.416,1.824 z"
         style=""
         id="path3754" />
      <path
         d="m -2927.112,-879.60563 q 2.976,-2.976 6.24,-5.472 3.36,-2.59199 7.008,-4.32 3.744,-1.824 7.968,-2.784 4.224,-1.056 9.216,-1.056 8.064,0 14.304,2.784 6.24,2.68801 10.368,7.68 4.224,4.896 6.336,11.808 2.208,6.816 2.208,15.072 v 62.688 h -23.712 v -62.688 q 0,-9.024 -4.128,-13.91999 -4.128,-4.99201 -12.576,-4.99201 -6.144,0 -11.52,2.784 -5.376,2.784 -10.176,7.584 v 71.232 h -23.712 v -98.496 h 14.496 q 4.608,0 6.048,4.32 z"
         style=""
         id="path3756" />
      <path
         d="m -2809.581,-791.66963 q -12.864,0 -19.776,-7.2 -6.816,-7.296 -6.816,-20.06399 v -55.00801 h -10.08 q -1.92,0 -3.264,-1.248 -1.344,-1.248 -1.344,-3.744 v -9.408 l 15.84,-2.592 4.992,-26.87999 q 0.48,-1.92001 1.824,-2.97601 1.344,-1.056 3.456,-1.056 h 12.288 v 31.008 h 26.304 v 16.896 h -26.304 v 53.376 q 0,4.60801 2.208,7.2 2.304,2.592 6.24,2.592 2.208,0 3.648,-0.48 1.536,-0.576 2.592,-1.152 1.152,-0.57599 2.016,-1.056 0.864,-0.576 1.728,-0.576 1.056,0 1.728,0.576 0.672,0.48001 1.44,1.536 l 7.104,11.52 q -5.184,4.32 -11.904,6.528 -6.72,2.208 -13.92,2.208 z"
         style=""
         id="path3758" />
      <path
         d="m -2748.795,-874.61363 q 4.608,-8.832 10.944,-13.824 6.336,-5.08799 14.976,-5.08799 6.816,0 10.944,2.97599 l -1.536,17.76 q -0.48,1.728 -1.44,2.496 -0.864,0.67201 -2.4,0.67201 -1.44,0 -4.32,-0.48001 -2.784,-0.48 -5.472,-0.48 -3.936,0 -7.008,1.152 -3.072,1.152 -5.568,3.36 -2.4,2.11201 -4.32,5.18401 -1.824,3.072 -3.456,7.00799 v 60.672 h -23.712 v -98.496 h 13.92 q 3.648,0 5.088,1.344 1.44,1.248 1.92,4.608 z"
         style=""
         id="path3760" />
      <path
         d="m -2638.707,-853.78163 q 0,-4.608 -1.344,-8.64 -1.248,-4.128 -3.84,-7.19999 -2.592,-3.07201 -6.624,-4.80001 -3.936,-1.824 -9.216,-1.824 -10.272,0 -16.224,5.856 -5.856,5.856 -7.488,16.608 z m -45.216,14.304 q 0.576,7.584 2.688,13.152 2.112,5.472 5.568,9.12 3.456,3.552 8.16,5.376 4.8,1.728 10.56,1.728 5.76,0 9.888,-1.344 4.224,-1.344 7.296,-2.976 3.168,-1.63199 5.472,-2.976 2.4,-1.344 4.608,-1.344 2.976,0 4.416,2.208 l 6.816,8.64 q -3.936,4.608 -8.832,7.776 -4.896,3.072 -10.272,4.992 -5.28,1.824 -10.848,2.592 -5.472,0.76801 -10.656,0.76801 -10.272,0 -19.104,-3.36001 -8.832,-3.456 -15.36,-10.08 -6.528,-6.72 -10.272,-16.51199 -3.744,-9.88801 -3.744,-22.84801 0,-10.08 3.264,-18.91199 3.264,-8.92801 9.312,-15.45601 6.144,-6.624 14.88,-10.464 8.832,-3.84 19.872,-3.84 9.312,0 17.184,2.976 7.872,2.976 13.536,8.736 5.664,5.66401 8.832,14.016 3.264,8.256 3.264,18.912 0,5.376 -1.152,7.296 -1.152,1.824 -4.416,1.824 z"
         style=""
         id="path3762" />
    </g>
  </g>
</svg>
