<?xml version="1.0" encoding="UTF-8" standalone="no"?>
<!-- Created with Inkscape (http://www.inkscape.org/) -->

<svg
   xmlns:dc="http://purl.org/dc/elements/1.1/"
   xmlns:cc="http://creativecommons.org/ns#"
   xmlns:rdf="http://www.w3.org/1999/02/22-rdf-syntax-ns#"
   xmlns:svg="http://www.w3.org/2000/svg"
   xmlns="http://www.w3.org/2000/svg"
   xmlns:sodipodi="http://sodipodi.sourceforge.net/DTD/sodipodi-0.dtd"
   xmlns:inkscape="http://www.inkscape.org/namespaces/inkscape"
   width="1480.348"
   height="253.05708"
   viewBox="0 0 391.67541 66.954688"
   version="1.1"
   id="svg8"
   inkscape:version="0.92.4 (5da689c313, 2019-01-14)"
   sodipodi:docname="appcentre-logo-montserrat.svg">
  <defs
     id="defs2" />
  <sodipodi:namedview
     id="base"
     pagecolor="#646464"
     bordercolor="#666666"
     borderopacity="1.0"
     inkscape:pageopacity="0"
     inkscape:pageshadow="2"
     inkscape:zoom="0.35"
     inkscape:cx="92.224314"
     inkscape:cy="-963.17243"
     inkscape:document-units="mm"
     inkscape:current-layer="layer1"
     showgrid="false"
     units="px"
     fit-margin-right="10"
     fit-margin-top="10"
     fit-margin-bottom="10"
     fit-margin-left="1"
     inkscape:window-width="3440"
     inkscape:window-height="1377"
     inkscape:window-x="-8"
     inkscape:window-y="-8"
     inkscape:window-maximized="1" />
  <metadata
     id="metadata5">
    <rdf:RDF>
      <cc:Work
         rdf:about="">
        <dc:format>image/svg+xml</dc:format>
        <dc:type
           rdf:resource="http://purl.org/dc/dcmitype/StillImage" />
        <dc:title />
      </cc:Work>
    </rdf:RDF>
  </metadata>
  <g
     inkscape:label="Layer 1"
     inkscape:groupmode="layer"
     id="layer1"
     transform="translate(261.39209,172.96073)">
    <flowRoot
       xml:space="preserve"
       id="flowRoot10"
       style="font-style:normal;font-variant:normal;font-weight:bold;font-stretch:normal;font-size:256.10665894px;line-height:1.25;font-family:Lato;-inkscape-font-specification:'Lato, Bold';font-variant-ligatures:normal;font-variant-caps:normal;font-variant-numeric:normal;font-feature-settings:normal;text-align:start;letter-spacing:0px;word-spacing:0px;writing-mode:lr-tb;text-anchor:start;fill:#000000;fill-opacity:1;stroke:none"
       transform="scale(0.26458333)"><flowRegion
         id="flowRegion12"><rect
           id="rect14"
           width="1651.4286"
           height="454.28571"
           x="-1557.1428"
           y="-648.90887" /></flowRegion><flowPara
         id="flowPara16" /></flowRoot>    <g
       aria-label="AppCentre"
       style="font-style:normal;font-variant:normal;font-weight:bold;font-stretch:normal;font-size:67.7615509px;line-height:1.25;font-family:Lato;-inkscape-font-specification:'Lato, Bold';font-variant-ligatures:normal;font-variant-caps:normal;font-variant-numeric:normal;font-feature-settings:normal;text-align:start;letter-spacing:0px;word-spacing:0px;writing-mode:lr-tb;text-anchor:start;fill:#ffffff;fill-opacity:1;stroke:none;stroke-width:0.26458332"
       id="text20">
      <path
         d="m -237.74977,-170.3149 q 6.91168,0 12.19708,2.77823 5.28541,2.71046 8.19915,7.99586 2.98151,5.21764 2.98151,12.46813 v 25.27506 h -15.99173 v -9.55438 h -15.04306 v 9.55438 h -15.72068 v -25.27506 q 0,-7.25049 2.91374,-12.46813 2.98151,-5.2854 8.26691,-7.99586 5.2854,-2.77823 12.19708,-2.77823 z m 7.38601,26.90134 v -5.01436 q 0,-4.4045 -2.1006,-6.64063 -2.03285,-2.30389 -5.42093,-2.30389 -3.38808,0 -5.48869,2.30389 -2.03284,2.23613 -2.03284,6.64063 v 5.01436 z"
         style="font-style:normal;font-variant:normal;font-weight:900;font-stretch:normal;font-size:67.76155853px;font-family:'Montserrat Alternates Black';-inkscape-font-specification:'Montserrat Alternates Black, Heavy';font-variant-ligatures:normal;font-variant-caps:normal;font-variant-numeric:normal;font-feature-settings:normal;text-align:start;writing-mode:lr-tb;text-anchor:start;stroke-width:0.26458332;fill:#ffffff"
         id="path22" />
      <path
         d="m -182.7295,-159.54081 q 4.87884,0 8.94453,2.37165 4.13345,2.3039 6.50511,6.7084 2.43941,4.4045 2.43941,10.16423 0,5.75973 -2.43941,10.16424 -2.37166,4.33674 -6.50511,6.70839 -4.06569,2.30389 -8.94453,2.30389 -6.1663,0 -9.41885,-3.18479 v 15.65292 h -15.31412 v -50.21132 h 14.56874 v 3.04927 q 3.32032,-3.72688 10.16423,-3.72688 z m -3.65912,26.49477 q 2.6427,0 4.33674,-1.89733 1.69404,-1.89732 1.69404,-5.35316 0,-3.45584 -1.69404,-5.35316 -1.69404,-1.96509 -4.33674,-1.96509 -2.6427,0 -4.33674,1.96509 -1.69404,1.89732 -1.69404,5.35316 0,3.45584 1.69404,5.35316 1.69404,1.89733 4.33674,1.89733 z"
         style="font-style:normal;font-variant:normal;font-weight:900;font-stretch:normal;font-size:67.76155853px;font-family:'Montserrat Alternates Black';-inkscape-font-specification:'Montserrat Alternates Black, Heavy';font-variant-ligatures:normal;font-variant-caps:normal;font-variant-numeric:normal;font-feature-settings:normal;text-align:start;writing-mode:lr-tb;text-anchor:start;stroke-width:0.26458332;fill:#ffffff"
         id="path24" />
      <path
         d="m -135.34934,-159.54081 q 4.87883,0 8.94452,2.37165 4.13346,2.3039 6.50511,6.7084 2.43942,4.4045 2.43942,10.16423 0,5.75973 -2.43942,10.16424 -2.37165,4.33674 -6.50511,6.70839 -4.06569,2.30389 -8.94452,2.30389 -6.16631,0 -9.41886,-3.18479 v 15.65292 h -15.31411 v -50.21132 h 14.56873 v 3.04927 q 3.32032,-3.72688 10.16424,-3.72688 z m -3.65913,26.49477 q 2.6427,0 4.33674,-1.89733 1.69404,-1.89732 1.69404,-5.35316 0,-3.45584 -1.69404,-5.35316 -1.69404,-1.96509 -4.33674,-1.96509 -2.6427,0 -4.33674,1.96509 -1.69404,1.89732 -1.69404,5.35316 0,3.45584 1.69404,5.35316 1.69404,1.89733 4.33674,1.89733 z"
         style="font-style:normal;font-variant:normal;font-weight:900;font-stretch:normal;font-size:67.76155853px;font-family:'Montserrat Alternates Black';-inkscape-font-specification:'Montserrat Alternates Black, Heavy';font-variant-ligatures:normal;font-variant-caps:normal;font-variant-numeric:normal;font-feature-settings:normal;text-align:start;writing-mode:lr-tb;text-anchor:start;stroke-width:0.26458332;fill:#ffffff"
         id="path26" />
      <path
         d="m -87.698147,-120.71344 q -7.521533,0 -13.552313,-3.11703 -6.03078,-3.18479 -9.48662,-8.809 -3.38808,-5.69197 -3.38808,-12.8747 0,-7.18272 3.38808,-12.80693 3.45584,-5.69197 9.48662,-8.80901 6.03078,-3.18479 13.552313,-3.18479 6.911679,0 12.332603,2.43942 5.420925,2.43941 8.944526,7.0472 l -10.096472,9.01229 q -4.404502,-5.55645 -10.367519,-5.55645 -5.014355,0 -8.063625,3.25255 -3.04927,3.1848 -3.04927,8.60572 0,5.42093 3.04927,8.67348 3.04927,3.18479 8.063625,3.18479 5.963017,0 10.367519,-5.55644 l 10.096472,9.01228 q -3.523601,4.60779 -8.944526,7.04721 -5.420924,2.43941 -12.332603,2.43941 z"
         style="font-style:normal;font-variant:normal;font-weight:900;font-stretch:normal;font-size:67.76155853px;font-family:'Montserrat Alternates Black';-inkscape-font-specification:'Montserrat Alternates Black, Heavy';font-variant-ligatures:normal;font-variant-caps:normal;font-variant-numeric:normal;font-feature-settings:normal;text-align:start;writing-mode:lr-tb;text-anchor:start;stroke-width:0.26458332;fill:#ffffff"
         id="path28" />
      <path
         d="m -42.398485,-132.43619 q 2.439417,0 4.065694,-0.60985 1.694039,-0.60986 3.659124,-2.10061 l 7.995864,8.06363 q -5.556448,5.96301 -16.195012,5.96301 -6.708395,0 -11.790512,-2.43941 -5.082117,-2.50718 -7.86034,-6.91168 -2.778224,-4.4045 -2.778224,-9.89319 0,-5.55645 2.778224,-9.89319 2.778223,-4.4045 7.589294,-6.84391 4.878832,-2.43942 10.909611,-2.43942 5.488686,0 10.096472,2.23613 4.607786,2.16837 7.318249,6.50511 2.710462,4.26898 2.710462,10.232 l -25.342823,4.87883 q 1.694039,3.25255 6.843917,3.25255 z M -43.957,-149.10553 q -2.642701,0 -4.33674,1.55852 -1.626278,1.55851 -1.965085,4.60778 l 11.858272,-2.30389 q -0.609854,-1.7618 -2.100608,-2.77823 -1.422993,-1.08418 -3.455839,-1.08418 z"
         style="font-style:normal;font-variant:normal;font-weight:900;font-stretch:normal;font-size:67.76155853px;font-family:'Montserrat Alternates Black';-inkscape-font-specification:'Montserrat Alternates Black, Heavy';font-variant-ligatures:normal;font-variant-caps:normal;font-variant-numeric:normal;font-feature-settings:normal;text-align:start;writing-mode:lr-tb;text-anchor:start;stroke-width:0.26458332;fill:#ffffff"
         id="path30" />
      <path
         d="m 6.616413,-159.54081 q 6.843917,0 10.977373,4.13345 4.201216,4.13346 4.201216,12.46813 v 21.14161 H 6.4808899 v -18.49891 q 0,-6.36958 -4.5400244,-6.36958 -2.57493922,0 -4.2012166,1.82956 -1.5585159,1.7618 -1.5585159,5.62421 v 17.41472 h -15.314112 v -37.06558 h 14.5687349 v 3.65913 q 2.1683699,-2.16837 5.01435531,-3.25256 2.84598549,-1.08418 6.16630179,-1.08418 z"
         style="font-style:normal;font-variant:normal;font-weight:900;font-stretch:normal;font-size:67.76155853px;font-family:'Montserrat Alternates Black';-inkscape-font-specification:'Montserrat Alternates Black, Heavy';font-variant-ligatures:normal;font-variant-caps:normal;font-variant-numeric:normal;font-feature-settings:normal;text-align:start;writing-mode:lr-tb;text-anchor:start;stroke-width:0.26458332;fill:#ffffff"
         id="path32" />
      <path
         d="m 53.857879,-123.08509 q -3.455839,1.96508 -9.418857,1.96508 -7.792579,0 -11.993795,-3.72688 -4.201217,-3.79465 -4.201217,-11.31618 v -31.0348 h 15.314112 v 10.36752 h 7.589295 v 11.18066 h -7.589295 v 9.35109 q 0,1.69404 0.8809,2.6427 0.880901,0.94867 2.303893,0.94867 1.965086,0 3.45584,-1.01643 z"
         style="font-style:normal;font-variant:normal;font-weight:900;font-stretch:normal;font-size:67.76155853px;font-family:'Montserrat Alternates Black';-inkscape-font-specification:'Montserrat Alternates Black, Heavy';font-variant-ligatures:normal;font-variant-caps:normal;font-variant-numeric:normal;font-feature-settings:normal;text-align:start;writing-mode:lr-tb;text-anchor:start;stroke-width:0.26458332;fill:#ffffff"
         id="path34" />
      <path
         d="m 72.32925,-154.86526 q 4.065693,-4.67555 11.993795,-4.67555 v 13.55231 q -1.829562,-0.27105 -3.388078,-0.27105 -7.86034,0 -7.86034,7.99587 v 16.46606 H 57.760514 V -158.8632 H 72.32925 Z"
         style="font-style:normal;font-variant:normal;font-weight:900;font-stretch:normal;font-size:67.76155853px;font-family:'Montserrat Alternates Black';-inkscape-font-specification:'Montserrat Alternates Black, Heavy';font-variant-ligatures:normal;font-variant-caps:normal;font-variant-numeric:normal;font-feature-settings:normal;text-align:start;writing-mode:lr-tb;text-anchor:start;stroke-width:0.26458332;fill:#ffffff"
         id="path36" />
      <path
         d="m 109.13859,-132.43619 q 2.43942,0 4.0657,-0.60985 1.69404,-0.60986 3.65912,-2.10061 l 7.99587,8.06363 q -5.55645,5.96301 -16.19502,5.96301 -6.70839,0 -11.790508,-2.43941 -5.082117,-2.50718 -7.860341,-6.91168 -2.778223,-4.4045 -2.778223,-9.89319 0,-5.55645 2.778223,-9.89319 2.778224,-4.4045 7.589295,-6.84391 4.878834,-2.43942 10.909614,-2.43942 5.48868,0 10.09647,2.23613 4.60779,2.16837 7.31825,6.50511 2.71046,4.26898 2.71046,10.232 l -25.34282,4.87883 q 1.69404,3.25255 6.84391,3.25255 z m -1.55851,-16.66934 q -2.6427,0 -4.33674,1.55852 -1.62628,1.55851 -1.96509,4.60778 l 11.85828,-2.30389 q -0.60986,-1.7618 -2.10061,-2.77823 -1.42299,-1.08418 -3.45584,-1.08418 z"
         style="font-style:normal;font-variant:normal;font-weight:900;font-stretch:normal;font-size:67.76155853px;font-family:'Montserrat Alternates Black';-inkscape-font-specification:'Montserrat Alternates Black, Heavy';font-variant-ligatures:normal;font-variant-caps:normal;font-variant-numeric:normal;font-feature-settings:normal;text-align:start;writing-mode:lr-tb;text-anchor:start;stroke-width:0.26458332;fill:#ffffff"
         id="path38" />
    </g>
  </g>
</svg>
