<?xml version="1.0" encoding="UTF-8" standalone="no"?>
<!-- Created with Inkscape (http://www.inkscape.org/) -->

<svg
   xmlns:dc="http://purl.org/dc/elements/1.1/"
   xmlns:cc="http://creativecommons.org/ns#"
   xmlns:rdf="http://www.w3.org/1999/02/22-rdf-syntax-ns#"
   xmlns:svg="http://www.w3.org/2000/svg"
   xmlns="http://www.w3.org/2000/svg"
   xmlns:sodipodi="http://sodipodi.sourceforge.net/DTD/sodipodi-0.dtd"
   xmlns:inkscape="http://www.inkscape.org/namespaces/inkscape"
   width="1237.1356"
   height="256.7236"
   viewBox="0 0 327.32546 67.924788"
   version="1.1"
   id="svg8"
   sodipodi:docname="appcentre-logo-roboto.svg"
   inkscape:version="0.92.4 (5da689c313, 2019-01-14)">
  <defs
     id="defs2" />
  <sodipodi:namedview
     id="base"
     pagecolor="#646464"
     bordercolor="#666666"
     borderopacity="1.0"
     inkscape:pageopacity="0"
     inkscape:pageshadow="2"
     inkscape:zoom="0.35"
     inkscape:cx="709.31376"
     inkscape:cy="-397.0576"
     inkscape:document-units="mm"
     inkscape:current-layer="layer1"
     showgrid="false"
     units="px"
     fit-margin-right="10"
     fit-margin-top="10"
     fit-margin-bottom="10"
     fit-margin-left="1"
     inkscape:window-width="3440"
     inkscape:window-height="1377"
     inkscape:window-x="-8"
     inkscape:window-y="-8"
     inkscape:window-maximized="1" />
  <metadata
     id="metadata5">
    <rdf:RDF>
      <cc:Work
         rdf:about="">
        <dc:format>image/svg+xml</dc:format>
        <dc:type
           rdf:resource="http://purl.org/dc/dcmitype/StillImage" />
        <dc:title></dc:title>
      </cc:Work>
    </rdf:RDF>
  </metadata>
  <g
     inkscape:label="Layer 1"
     inkscape:groupmode="layer"
     id="layer1"
     transform="translate(37.405511,-378.85975)">
    <flowRoot
       xml:space="preserve"
       id="flowRoot10"
       style="font-style:normal;font-variant:normal;font-weight:bold;font-stretch:normal;font-size:256.10665894px;line-height:1.25;font-family:Lato;-inkscape-font-specification:'Lato, Bold';font-variant-ligatures:normal;font-variant-caps:normal;font-variant-numeric:normal;font-feature-settings:normal;text-align:start;letter-spacing:0px;word-spacing:0px;writing-mode:lr-tb;text-anchor:start;fill:#000000;fill-opacity:1;stroke:none"
       transform="scale(0.26458333)"><flowRegion
         id="flowRegion12"><rect
           id="rect14"
           width="1651.4286"
           height="454.28571"
           x="-1557.1428"
           y="-648.90887" /></flowRegion><flowPara
         id="flowPara16"></flowPara></flowRoot>    <text
       xml:space="preserve"
       style="font-style:normal;font-variant:normal;font-weight:bold;font-stretch:normal;font-size:67.7615509px;line-height:1.25;font-family:Lato;-inkscape-font-specification:'Lato, Bold';font-variant-ligatures:normal;font-variant-caps:normal;font-variant-numeric:normal;font-feature-settings:normal;text-align:start;letter-spacing:0px;word-spacing:0px;writing-mode:lr-tb;text-anchor:start;fill:#000000;fill-opacity:1;stroke:none;stroke-width:0.26458332"
       x="-264.58334"
       y="-121.79762"
       id="text20"><tspan
         sodipodi:role="line"
         id="tspan18"
         x="-264.58334"
         y="-121.79762"
         style="font-style:normal;font-variant:normal;font-weight:900;font-stretch:normal;font-size:67.76155853px;font-family:'Montserrat Alternates Black';-inkscape-font-specification:'Montserrat Alternates Black, Heavy';font-variant-ligatures:normal;font-variant-caps:normal;font-variant-numeric:normal;font-feature-settings:normal;text-align:start;writing-mode:lr-tb;text-anchor:start;stroke-width:0.26458332">AppCentre</tspan></text>
    <flowRoot
       xml:space="preserve"
       id="flowRoot49"
       style="font-style:normal;font-variant:normal;font-weight:bold;font-stretch:normal;font-size:256.10665894px;line-height:1.25;font-family:Lato;-inkscape-font-specification:'Lato, Bold';font-variant-ligatures:normal;font-variant-caps:normal;font-variant-numeric:normal;font-feature-settings:normal;text-align:start;letter-spacing:0px;word-spacing:0px;writing-mode:lr-tb;text-anchor:start;fill:#000000;fill-opacity:1;stroke:none"><flowRegion
         id="flowRegion51"><rect
           id="rect53"
           width="1908.5714"
           height="502.85715"
           x="-211.42857"
           y="1082.5197" /></flowRegion><flowPara
         id="flowPara55"></flowPara></flowRoot>    <g
       aria-label="AppCentre"
       transform="scale(0.26458333)"
       style="font-style:normal;font-variant:normal;font-weight:900;font-stretch:normal;font-size:256.10665894px;line-height:1.25;font-family:'Roboto Black';-inkscape-font-specification:'Roboto Black, Heavy';font-variant-ligatures:normal;font-variant-caps:normal;font-variant-numeric:normal;font-feature-settings:normal;text-align:start;letter-spacing:0px;word-spacing:0px;writing-mode:lr-tb;text-anchor:start;fill:#ffffff;fill-opacity:1;stroke:none"
       id="flowRoot73">
      <path
         d="m -22.826201,1592.5987 h -60.150051 l -10.504374,34.0142 h -46.894534 l 66.777814,-182.0759 h 41.267186 l 67.278019,182.0759 h -47.144634 z m -49.645676,-33.8891 h 39.141301 l -19.633177,-63.1513 z"
         style="fill:#ffffff"
         id="path100"
         inkscape:connector-curvature="0" />
      <path
         d="m 166.00244,1559.9601 q 0,31.5131 -14.25594,50.396 -14.13088,18.7578 -38.26593,18.7578 -18.632762,0 -30.637762,-13.6307 v 63.1513 H 40.700257 v -187.328 h 39.391405 l 1.250521,12.5052 q 12.130052,-15.0062 31.888277,-15.0062 25.01042,0 38.8912,18.5077 13.88078,18.3826 13.88078,50.6461 z m -42.14255,-2.6261 q 0,-36.015 -21.00875,-36.015 -15.006249,0 -20.008332,10.7545 v 53.2722 q 5.502292,11.2547 20.258442,11.2547 20.13338,0 20.75864,-34.7645 z"
         style="fill:#ffffff"
         id="path102"
         inkscape:connector-curvature="0" />
      <path
         d="m 310.06242,1559.9601 q 0,31.5131 -14.25593,50.396 -14.13089,18.7578 -38.26594,18.7578 -18.63276,0 -30.63776,-13.6307 v 63.1513 h -42.14255 v -187.328 h 39.3914 l 1.25053,12.5052 q 12.13005,-15.0062 31.88828,-15.0062 25.01041,0 38.89119,18.5077 13.88078,18.3826 13.88078,50.6461 z m -42.14255,-2.6261 q 0,-36.015 -21.00875,-36.015 -15.00625,0 -20.00833,10.7545 v 53.2722 q 5.50229,11.2547 20.25844,11.2547 20.13338,0 20.75864,-34.7645 z"
         style="fill:#ffffff"
         id="path104"
         inkscape:connector-curvature="0" />
      <path
         d="m 477.75726,1564.9622 q -0.87536,19.0079 -10.25427,33.639 -9.3789,14.506 -26.38599,22.5094 -16.88203,8.0033 -38.64109,8.0033 -35.88994,0 -56.52354,-23.3847 -20.63359,-23.3848 -20.63359,-66.0275 v -9.0038 q 0,-26.7611 9.25385,-46.7695 9.37891,-20.1333 26.8862,-31.0129 17.50729,-11.0046 40.51687,-11.0046 33.1388,0 53.27219,17.5073 20.13338,17.3823 22.88453,48.02 h -43.76823 q -0.50021,-16.6319 -8.37849,-23.8849 -7.87828,-7.253 -24.01,-7.253 -16.38182,0 -24.01,12.2551 -7.62817,12.2551 -8.00333,39.1413 v 12.8803 q 0,29.1372 7.25302,41.6424 7.37807,12.5052 25.26052,12.5052 15.1313,0 23.13464,-7.128 8.00333,-7.128 8.50354,-22.6344 z"
         style="fill:#ffffff"
         id="path106"
         inkscape:connector-curvature="0" />
      <path
         d="m 562.04238,1629.1139 q -31.13797,0 -50.39599,-18.5077 -19.25802,-18.6328 -19.25802,-48.3952 v -3.5014 q 0,-20.7587 7.62818,-36.6403 7.75323,-15.8816 22.50937,-24.5102 14.75615,-8.7536 35.01458,-8.7536 28.51188,0 45.01875,17.7574 16.50688,17.6323 16.50688,49.2705 v 16.3818 h -83.7849 q 2.25094,11.3797 9.87912,17.8825 7.62817,6.5027 19.75823,6.5027 20.00833,0 31.26302,-14.0059 l 19.25802,22.7595 q -7.87829,10.8795 -22.38433,17.3822 -14.38099,6.3777 -31.01291,6.3777 z M 557.2904,1521.319 q -18.50771,0 -22.00917,24.5102 h 42.51771 v -3.2513 q 0.2501,-10.1293 -5.12714,-15.6315 -5.37723,-5.6274 -15.3814,-5.6274 z"
         style="fill:#ffffff"
         id="path108"
         inkscape:connector-curvature="0" />
      <path
         d="m 674.83934,1491.3065 1.37557,15.8816 q 14.00583,-18.3826 38.64109,-18.3826 21.13381,0 31.51313,12.6302 10.50437,12.6303 10.87953,38.0159 v 87.1613 h -42.2676 v -85.4106 q 0,-10.2543 -4.12672,-15.0063 -4.12672,-4.877 -15.00625,-4.877 -12.38016,0 -18.38266,9.7541 v 95.5398 h -42.14255 v -135.3064 z"
         style="fill:#ffffff"
         id="path110"
         inkscape:connector-curvature="0" />
      <path
         d="m 829.7789,1457.6675 v 33.639 h 22.25927 v 29.2622 H 829.7789 v 61.9008 q 0,7.6282 2.75115,10.6294 2.75114,3.0013 10.87953,3.0013 6.2526,0 10.50437,-0.7504 v 30.1376 q -11.37974,3.6265 -23.75989,3.6265 -21.75906,0 -32.13839,-10.2543 -10.37932,-10.2542 -10.37932,-31.1379 v -67.153 h -17.25719 v -29.2622 h 17.25719 v -33.639 z"
         style="fill:#ffffff"
         id="path112"
         inkscape:connector-curvature="0" />
      <path
         d="m 950.57917,1529.4474 -13.88078,-1.0004 q -19.88328,0 -25.51063,12.5052 v 85.6607 h -42.14255 v -135.3064 h 39.51646 l 1.37557,17.3822 q 10.62943,-19.8832 29.63735,-19.8832 6.75281,0 11.75489,1.5006 z"
         style="fill:#ffffff"
         id="path114"
         inkscape:connector-curvature="0" />
      <path
         d="m 1028.7368,1629.1139 q -31.13799,0 -50.39601,-18.5077 -19.25802,-18.6328 -19.25802,-48.3952 v -3.5014 q 0,-20.7587 7.62817,-36.6403 7.75323,-15.8816 22.50938,-24.5102 14.75618,-8.7536 35.01458,-8.7536 28.5119,0 45.0187,17.7574 16.5069,17.6323 16.5069,49.2705 v 16.3818 h -83.7849 q 2.251,11.3797 9.8791,17.8825 7.6282,6.5027 19.7583,6.5027 20.0083,0 31.263,-14.0059 l 19.258,22.7595 q -7.8783,10.8795 -22.3843,17.3822 -14.381,6.3777 -31.0129,6.3777 z m -4.752,-107.7949 q -18.5077,0 -22.0092,24.5102 h 42.5177 v -3.2513 q 0.2501,-10.1293 -5.1271,-15.6315 -5.3772,-5.6274 -15.3814,-5.6274 z"
         style="fill:#ffffff"
         id="path116"
         inkscape:connector-curvature="0" />
    </g>
  </g>
</svg>
