<?xml version="1.0" encoding="UTF-8"?>
<svg xmlns="http://www.w3.org/2000/svg" xmlns:xlink="http://www.w3.org/1999/xlink" width="367px" height="93px" viewBox="0 0 367 93" version="1.1">
  <title>gfigoldpartner_EN_GEN</title>
  <g id="Page-1" stroke="none" stroke-width="1" fill="none" fill-rule="evenodd">
    <g id="3-copy-7" transform="translate(-70.000000, -55.000000)" fill-rule="nonzero">
      <g id="gfigoldpartner_EN_GEN" transform="translate(70.000000, 55.000000)">
        <g id="Group" transform="translate(190.700000, 57.300000)">
          <rect id="Rectangle" fill="#E5A324" x="0" y="0" width="164" height="35.4" rx="2"></rect>
          <g id="GOLD-PARTNER" transform="translate(15.092000, 11.964000)" fill="#FFFFFF">
            <path d="M6.328,5.824 L10.312,5.824 L10.312,10.616 C9.72,11.048 9.08933333,11.364 8.42,11.564 C7.75066667,11.764 7.04266667,11.864 6.296,11.864 C5.34133333,11.864 4.47733333,11.716 3.704,11.42 C2.93066667,11.124 2.26933333,10.712 1.72,10.184 C1.17066667,9.656 0.746666667,9.02933333 0.448,8.304 C0.149333333,7.57866667 0,6.78666667 0,5.928 C0,5.05866667 0.142666667,4.26133333 0.428,3.536 C0.713333333,2.81066667 1.12,2.18666667 1.648,1.664 C2.176,1.14133333 2.81466667,0.733333333 3.564,0.44 C4.31333333,0.146666667 5.152,0 6.08,0 C6.56,0 7.008,0.0386666667 7.424,0.116 C7.84,0.193333333 8.224,0.3 8.576,0.436 C8.928,0.572 9.25066667,0.733333333 9.544,0.92 C9.83733333,1.10666667 10.104,1.312 10.344,1.536 L9.648,2.608 C9.54133333,2.77866667 9.40266667,2.88266667 9.232,2.92 C9.06133333,2.95733333 8.87466667,2.91466667 8.672,2.792 C8.48,2.67466667 8.292,2.56933333 8.108,2.476 C7.924,2.38266667 7.728,2.30133333 7.52,2.232 C7.312,2.16266667 7.08533333,2.10933333 6.84,2.072 C6.59466667,2.03466667 6.312,2.016 5.992,2.016 C5.45333333,2.016 4.96533333,2.10933333 4.528,2.296 C4.09066667,2.48266667 3.71866667,2.74666667 3.412,3.088 C3.10533333,3.42933333 2.86933333,3.84 2.704,4.32 C2.53866667,4.8 2.456,5.336 2.456,5.928 C2.456,6.568 2.54666667,7.14 2.728,7.644 C2.90933333,8.148 3.16533333,8.57333333 3.496,8.92 C3.82666667,9.26666667 4.22266667,9.53066667 4.684,9.712 C5.14533333,9.89333333 5.65866667,9.984 6.224,9.984 C6.608,9.984 6.95066667,9.94533333 7.252,9.868 C7.55333333,9.79066667 7.848,9.68533333 8.136,9.552 L8.136,7.6 L6.824,7.6 C6.66933333,7.6 6.548,7.55866667 6.46,7.476 C6.372,7.39333333 6.328,7.288 6.328,7.16 L6.328,5.824 Z" id="Path"></path>
            <path d="M24.688,5.928 C24.688,6.776 24.5453333,7.56266667 24.26,8.288 C23.9746667,9.01333333 23.572,9.64 23.052,10.168 C22.532,10.696 21.9066667,11.1106667 21.176,11.412 C20.4453333,11.7133333 19.6346667,11.864 18.744,11.864 C17.8533333,11.864 17.0426667,11.7133333 16.312,11.412 C15.5813333,11.1106667 14.9546667,10.696 14.432,10.168 C13.9093333,9.64 13.5053333,9.01333333 13.22,8.288 C12.9346667,7.56266667 12.792,6.776 12.792,5.928 C12.792,5.08 12.9346667,4.29466667 13.22,3.572 C13.5053333,2.84933333 13.9093333,2.224 14.432,1.696 C14.9546667,1.168 15.5813333,0.753333333 16.312,0.452 C17.0426667,0.150666667 17.8533333,0 18.744,0 C19.6346667,0 20.4453333,0.150666667 21.176,0.452 C21.9066667,0.753333333 22.532,1.16933333 23.052,1.7 C23.572,2.23066667 23.9746667,2.85733333 24.26,3.58 C24.5453333,4.30266667 24.688,5.08533333 24.688,5.928 Z M22.232,5.928 C22.232,5.32 22.152,4.77466667 21.992,4.292 C21.832,3.80933333 21.6013333,3.39866667 21.3,3.06 C20.9986667,2.72133333 20.6333333,2.46266667 20.204,2.284 C19.7746667,2.10533333 19.288,2.016 18.744,2.016 C18.2,2.016 17.712,2.10533333 17.28,2.284 C16.848,2.46266667 16.4813333,2.72133333 16.18,3.06 C15.8786667,3.39866667 15.648,3.80933333 15.488,4.292 C15.328,4.77466667 15.248,5.32 15.248,5.928 C15.248,6.54133333 15.328,7.08933333 15.488,7.572 C15.648,8.05466667 15.8786667,8.464 16.18,8.8 C16.4813333,9.136 16.848,9.39333333 17.28,9.572 C17.712,9.75066667 18.2,9.84 18.744,9.84 C19.288,9.84 19.7746667,9.75066667 20.204,9.572 C20.6333333,9.39333333 20.9986667,9.136 21.3,8.8 C21.6013333,8.464 21.832,8.05466667 21.992,7.572 C22.152,7.08933333 22.232,6.54133333 22.232,5.928 Z" id="Shape"></path>
            <polygon id="Path" points="34.536 9.784 34.536 11.736 27.648 11.736 27.648 0.128 30.048 0.128 30.048 9.784"></polygon>
            <path d="M47.608,5.928 C47.608,6.776 47.4653333,7.556 47.18,8.268 C46.8946667,8.98 46.492,9.592 45.972,10.104 C45.452,10.616 44.8266667,11.016 44.096,11.304 C43.3653333,11.592 42.5546667,11.736 41.664,11.736 L37.2,11.736 L37.2,0.128 L41.664,0.128 C42.5546667,0.128 43.3653333,0.272 44.096,0.56 C44.8266667,0.848 45.452,1.24933333 45.972,1.764 C46.492,2.27866667 46.8946667,2.89066667 47.18,3.6 C47.4653333,4.30933333 47.608,5.08533333 47.608,5.928 Z M45.144,5.928 C45.144,5.32 45.064,4.77333333 44.904,4.288 C44.744,3.80266667 44.5146667,3.392 44.216,3.056 C43.9173333,2.72 43.5533333,2.46133333 43.124,2.28 C42.6946667,2.09866667 42.208,2.008 41.664,2.008 L39.616,2.008 L39.616,9.856 L41.664,9.856 C42.208,9.856 42.6946667,9.76666667 43.124,9.588 C43.5533333,9.40933333 43.9173333,9.15066667 44.216,8.812 C44.5146667,8.47333333 44.744,8.06133333 44.904,7.576 C45.064,7.09066667 45.144,6.54133333 45.144,5.928 Z" id="Shape"></path>
            <path d="M59.496,5.904 C60.248,5.904 60.7986667,5.72266667 61.148,5.36 C61.4973333,4.99733333 61.672,4.50133333 61.672,3.872 C61.672,3.584 61.628,3.32133333 61.54,3.084 C61.452,2.84666667 61.3186667,2.644 61.14,2.476 C60.9613333,2.308 60.736,2.17866667 60.464,2.088 C60.192,1.99733333 59.8693333,1.952 59.496,1.952 L57.976,1.952 L57.976,5.904 L59.496,5.904 Z M59.496,0.128 C60.2906667,0.128 60.9773333,0.221333333 61.556,0.408 C62.1346667,0.594666667 62.6106667,0.854666667 62.984,1.188 C63.3573333,1.52133333 63.6333333,1.91733333 63.812,2.376 C63.9906667,2.83466667 64.08,3.33333333 64.08,3.872 C64.08,4.44266667 63.9866667,4.96533333 63.8,5.44 C63.6133333,5.91466667 63.3306667,6.32266667 62.952,6.664 C62.5733333,7.00533333 62.096,7.27066667 61.52,7.46 C60.944,7.64933333 60.2693333,7.744 59.496,7.744 L57.976,7.744 L57.976,11.736 L55.576,11.736 L55.576,0.128 L59.496,0.128 Z" id="Shape"></path>
            <path d="M72.128,7.328 L70.872,3.776 C70.7973333,3.58933333 70.7186667,3.37066667 70.636,3.12 C70.5533333,2.86933333 70.4746667,2.59733333 70.4,2.304 C70.3253333,2.60266667 70.2466667,2.87866667 70.164,3.132 C70.0813333,3.38533333 70.0026667,3.60533333 69.928,3.792 L68.68,7.328 L72.128,7.328 Z M76.16,11.736 L74.296,11.736 C74.088,11.736 73.9186667,11.6866667 73.788,11.588 C73.6573333,11.4893333 73.56,11.3626667 73.496,11.208 L72.712,8.992 L68.088,8.992 L67.304,11.208 C67.2506667,11.3413333 67.1573333,11.4626667 67.024,11.572 C66.8906667,11.6813333 66.7226667,11.736 66.52,11.736 L64.64,11.736 L69.176,0.128 L71.632,0.128 L76.16,11.736 Z" id="Shape"></path>
            <path d="M82.064,5.624 C82.4533333,5.624 82.7893333,5.57466667 83.072,5.476 C83.3546667,5.37733333 83.5866667,5.24133333 83.768,5.068 C83.9493333,4.89466667 84.0826667,4.69066667 84.168,4.456 C84.2533333,4.22133333 84.296,3.96533333 84.296,3.688 C84.296,3.13866667 84.1133333,2.712 83.748,2.408 C83.3826667,2.104 82.8266667,1.952 82.08,1.952 L80.832,1.952 L80.832,5.624 L82.064,5.624 Z M87.688,11.736 L85.52,11.736 C85.1146667,11.736 84.8213333,11.5813333 84.64,11.272 L82.432,7.712 C82.3413333,7.57333333 82.2413333,7.472 82.132,7.408 C82.0226667,7.344 81.8613333,7.312 81.648,7.312 L80.832,7.312 L80.832,11.736 L78.432,11.736 L78.432,0.128 L82.08,0.128 C82.8906667,0.128 83.584,0.212 84.16,0.38 C84.736,0.548 85.208,0.781333333 85.576,1.08 C85.944,1.37866667 86.2133333,1.73466667 86.384,2.148 C86.5546667,2.56133333 86.64,3.016 86.64,3.512 C86.64,3.896 86.5853333,4.26 86.476,4.604 C86.3666667,4.948 86.208,5.26133333 86,5.544 C85.792,5.82666667 85.536,6.07733333 85.232,6.296 C84.928,6.51466667 84.5813333,6.69066667 84.192,6.824 C84.3466667,6.90933333 84.4906667,7.012 84.624,7.132 C84.7573333,7.252 84.8773333,7.39466667 84.984,7.56 L87.688,11.736 Z" id="Shape"></path>
            <polygon id="Path" points="97.968 2.064 94.576 2.064 94.576 11.736 92.168 11.736 92.168 2.064 88.776 2.064 88.776 0.128 97.968 0.128"></polygon>
            <path d="M110.56,0.128 L110.56,11.736 L109.32,11.736 C109.133333,11.736 108.976,11.7053333 108.848,11.644 C108.72,11.5826667 108.594667,11.4773333 108.472,11.328 L102.688,3.968 C102.704,4.15466667 102.716,4.33866667 102.724,4.52 C102.732,4.70133333 102.736,4.86933333 102.736,5.024 L102.736,11.736 L100.616,11.736 L100.616,0.128 L101.88,0.128 C101.981333,0.128 102.068,0.132 102.14,0.14 C102.212,0.148 102.277333,0.166666667 102.336,0.196 C102.394667,0.225333333 102.450667,0.264 102.504,0.312 C102.557333,0.36 102.616,0.424 102.68,0.504 L108.504,7.896 C108.482667,7.69333333 108.466667,7.49733333 108.456,7.308 C108.445333,7.11866667 108.44,6.93866667 108.44,6.768 L108.44,0.128 L110.56,0.128 Z" id="Path"></path>
            <polygon id="Path" points="116.608 2.008 116.608 4.992 120.48 4.992 120.48 6.808 116.608 6.808 116.608 9.856 121.584 9.856 121.584 11.736 114.192 11.736 114.192 0.128 121.584 0.128 121.584 2.008"></polygon>
            <path d="M128.208,5.624 C128.597333,5.624 128.933333,5.57466667 129.216,5.476 C129.498667,5.37733333 129.730667,5.24133333 129.912,5.068 C130.093333,4.89466667 130.226667,4.69066667 130.312,4.456 C130.397333,4.22133333 130.44,3.96533333 130.44,3.688 C130.44,3.13866667 130.257333,2.712 129.892,2.408 C129.526667,2.104 128.970667,1.952 128.224,1.952 L126.976,1.952 L126.976,5.624 L128.208,5.624 Z M133.832,11.736 L131.664,11.736 C131.258667,11.736 130.965333,11.5813333 130.784,11.272 L128.576,7.712 C128.485333,7.57333333 128.385333,7.472 128.276,7.408 C128.166667,7.344 128.005333,7.312 127.792,7.312 L126.976,7.312 L126.976,11.736 L124.576,11.736 L124.576,0.128 L128.224,0.128 C129.034667,0.128 129.728,0.212 130.304,0.38 C130.88,0.548 131.352,0.781333333 131.72,1.08 C132.088,1.37866667 132.357333,1.73466667 132.528,2.148 C132.698667,2.56133333 132.784,3.016 132.784,3.512 C132.784,3.896 132.729333,4.26 132.62,4.604 C132.510667,4.948 132.352,5.26133333 132.144,5.544 C131.936,5.82666667 131.68,6.07733333 131.376,6.296 C131.072,6.51466667 130.725333,6.69066667 130.336,6.824 C130.490667,6.90933333 130.634667,7.012 130.768,7.132 C130.901333,7.252 131.021333,7.39466667 131.128,7.56 L133.832,11.736 Z" id="Shape"></path>
          </g>
        </g>
        <g id="Layer_1-2">
          <circle id="Oval" fill="#2BACE2" cx="24.6" cy="24.1" r="5.3"></circle>
          <path d="M49.2,24.4 C49.2,24.3 49.2,24.2 49.2,24.1 C49.3,21.2 47.1,18.9 44.2,18.8 L43.4,18.8 C43.4,18.8 43.4,18.8 43.3,18.8 L43.3,18.8 C43.3,18.8 43.3,18.8 43.2,18.8 L38.3,18.8 C37,18.8 35.7,19.4 34.8,20.4 C33.9,21.4 33.3,22.8 33.3,24.2 C33.2,26.7 35,28.9 37.4,29.4 L37.4,31.2 L37.4,31.2 C37,34.8 34,37.5 30.4,37.5 L18.7,37.5 C15.1,37.5 12.1,34.8 11.7,31.2 L11.7,31.2 L11.7,18 L11.7,18 C12.1,14.4 15.1,11.7 18.7,11.7 L24.2,11.7 C24.3,11.7 24.5,11.7 24.6,11.7 L38.4,11.7 C41.5,11.7 44,9.2 44,6.1 C44,6.1 44,6.1 44,6.1 C44,2.9 41.6,0.2 38.4,0 L18.7,0 C8.4,0 -1.0658141e-14,8.3 -1.0658141e-14,18.6 C-1.0658141e-14,18.6 -1.0658141e-14,18.6 -1.0658141e-14,18.6 L-1.0658141e-14,30.3 C-1.0658141e-14,40.6 8.3,49 18.6,49 C18.6,49 18.6,49 18.6,49 L30.4,49 C40.7,49 49.1,40.7 49.1,30.4 C49.1,30.4 49.1,30.4 49.1,30.4 C49.1,30.4 49.1,27.8 49.1,24.5 C49.2,24.5 49.2,24.4 49.2,24.4 Z" id="Path" fill="#201E55"></path>
          <path d="M121.7,6.3 L121.7,42.9 C121.7,46.1 119.1,48.6 116,48.6 C112.8,48.6 110.3,46 110.3,42.9 L110.3,6.3 C110.3,3.1 112.9,0.6 116,0.6 C119.1,0.6 121.7,3.1 121.7,6.3 Z" id="Path" fill="#201E55"></path>
          <path d="M102.6,7 C102.6,10.1 100.1,12.6 97,12.6 C97,12.6 97,12.6 97,12.6 L63.8,12.6 C60.7,12.6 58.2,10.1 58.2,7 C58.2,3.9 60.7,1.4 63.8,1.4 C63.8,1.4 63.8,1.4 63.9,1.4 L97.1,1.4 C100.1,1.3 102.6,3.8 102.6,7 C102.6,7 102.6,7 102.6,7 Z" id="Path" fill="#201E55"></path>
          <path d="M83.5,24.1 C83.5,27.2 81,29.7 77.9,29.7 C77.9,29.7 77.9,29.7 77.9,29.7 L69.5,29.7 L69.5,42.9 C69.5,46 67,48.5 63.9,48.5 C60.8,48.5 58.3,46 58.3,42.9 C58.3,42.9 58.3,42.9 58.3,42.9 L58.3,24.1 C58.3,21 60.8,18.5 63.9,18.5 C63.9,18.5 63.9,18.5 63.9,18.5 L77.9,18.5 C80.9,18.5 83.5,21 83.5,24.1 Z" id="Path" fill="#201E55"></path>
          <path d="M135.9,41.5 C134.8,39.8 135.4,38.6 137.5,38 L138.1,37.8 C139.5,37.3 141.1,37.8 142,39.1 C143.9,40.9 146.4,41.9 149,41.9 C152.6,41.9 154.7,40.5 154.7,38.2 C154.7,32.2 136.2,36.1 136.2,24.5 C136.2,19.1 141.2,15.5 148.3,15.5 C153.6,15.5 158.4,17.4 160.5,20.5 C161.7,22.3 161.2,23.6 159,24.1 L158.2,24.3 C156.2,24.7 155.4,24 154,22.8 C152.5,21.5 150.5,20.8 148.5,20.8 C145.3,20.8 143.3,22.1 143.3,24.2 C143.3,30.8 162,26.2 162,37.8 C162,43.4 156.7,47 149,47 C143.4,47.2 138.2,44.9 135.9,41.5 Z" id="Path" fill="#2BACE2"></path>
          <path d="M164.3,34.6 C164.3,25.8 171.1,22 178.1,22 C185.1,22 191.9,25.8 191.9,34.6 C191.9,43.5 185.1,47.3 178.1,47.3 C171.1,47.3 164.3,43.5 164.3,34.6 Z M184.8,34.6 C184.8,30 182,27.3 178.1,27.3 C174.1,27.3 171.4,30 171.4,34.6 C171.4,39.3 174.2,42 178.2,42 C182.1,42 184.8,39.2 184.8,34.6 L184.8,34.6 Z" id="Shape" fill="#2BACE2"></path>
          <path d="M199.4,46.8 C197.4,46.8 196.3,45.8 196.3,44 L196.3,27.3 L195.2,27.3 C193.9,27.5 192.6,26.6 192.4,25.2 C192.4,25.1 192.4,24.9 192.4,24.8 C192.4,23.2 193.5,22.4 195.2,22.4 L196.3,22.4 L196.3,21.5 C196.3,15.9 199.7,13.1 206.4,13.1 C207.1,13.1 207.9,13.1 208.5,13.2 C210.6,13.4 211.5,14.3 211.2,15.8 C211.2,17 210.3,18 209.1,18 C209,18 208.8,18 208.7,18 C208.3,18 208,18 207.6,18 C204.8,18 203.4,19.2 203.4,21.6 L203.4,22.4 L207.4,22.4 C209.4,22.4 210.5,23.3 210.5,24.8 C210.5,26.4 209.4,27.3 207.4,27.3 L203.4,27.3 L203.4,44 C203.4,45.8 202.3,46.8 200.3,46.8 L199.4,46.8 L199.4,46.8 Z" id="Path" fill="#2BACE2"></path>
          <path d="M216.3,37.1 L216.3,27.3 L215.2,27.3 C213.9,27.5 212.8,26.6 212.6,25.3 C212.6,25.1 212.6,25 212.6,24.8 C212.5,23.6 213.3,22.5 214.5,22.4 C214.7,22.4 214.8,22.4 215,22.4 L216.4,22.4 L216.4,20.4 C216.4,18.7 217.3,17.8 219.3,17.4 L220.1,17.2 C222.5,16.7 223.5,17.6 223.5,19.6 L223.5,22.3 L227.7,22.3 C229.9,22.3 230.8,23.2 230.8,24.7 C230.8,26.3 229.9,27.2 227.7,27.2 L223.5,27.2 L223.5,36.4 C223.5,40.4 224.8,41.9 228.1,42 C229.8,42.1 230.9,42.7 230.9,44.2 C231,45.8 230.2,46.8 228.2,47 C227.7,47 227.3,47.1 226.9,47.1 C219.6,47.2 216.3,44.6 216.3,37.1 Z" id="Path" fill="#2BACE2"></path>
          <path d="M241.6,44.6 L233.7,25.7 C232.9,23.7 233.9,22.4 236.2,22.4 L237.3,22.4 C238.9,22.2 240.4,23.2 240.8,24.7 L246.3,39.2 L251.4,24.7 C251.9,23.2 253.3,22.2 254.9,22.3 L255,22.3 C256.6,22.2 258,23.2 258.5,24.7 L263.6,39.2 L269.1,24.7 C269.6,23.2 271,22.2 272.6,22.4 L273.8,22.4 C276.1,22.4 277.1,23.7 276.3,25.7 L268.3,44.6 C267.8,46.1 266.3,47 264.8,46.8 L263.2,46.8 C261.6,46.9 260.1,46 259.7,44.4 L255.1,31 L250.5,44.4 C250,45.9 248.6,46.9 247,46.8 L245.4,46.8 C243.6,47 242.1,46.1 241.6,44.6 Z" id="Path" fill="#2BACE2"></path>
          <path d="M277.5,34.6 C277.5,26.4 282.5,22 289.2,22 C292.9,22 296.5,23.7 297.9,26.7 L297.9,24.9 C297.9,23.3 299,22.4 301,22.4 L301.9,22.4 C303.9,22.4 305,23.4 305,25.2 L305,43.9 C305,45.7 303.9,46.7 301.9,46.7 L301,46.7 C299,46.7 297.9,45.8 297.9,44.3 L297.9,42.6 C296.5,45.5 293,47.2 289.3,47.2 C282.5,47.3 277.5,42.8 277.5,34.6 Z M298,34.6 C298,30.1 295.3,27.3 291.2,27.3 C287.2,27.3 284.5,30.1 284.5,34.6 C284.5,39.2 287.2,42 291.3,42 C295.3,42 298,39.2 298,34.6 Z" id="Shape" fill="#2BACE2"></path>
          <path d="M325.4,25.1 L325.3,25.6 C325.1,27.4 324,27.9 322,28.2 C318.5,28.7 316.6,30.9 316.6,35.4 L316.6,44.1 C316.6,45.9 315.5,46.9 313.5,46.9 L312.6,46.9 C310.6,46.9 309.5,45.9 309.5,44.1 L309.5,25.3 C309.5,23.5 310.6,22.5 312.6,22.5 L313.5,22.5 C315.5,22.5 316.6,23.4 316.6,25.1 L316.6,26.2 C317.6,23.7 320.1,22.1 322.8,22.3 C324.8,22.2 325.6,23.3 325.4,25.1 Z" id="Path" fill="#2BACE2"></path>
          <path d="M327.2,34.6 C327.2,27.1 332.8,22 340.9,22 C348.7,22 353.6,26.4 354.1,33.2 C354.2,35.1 353.1,36 351,36 L334.3,36 C334.4,40 337.1,42.3 341.4,42.3 C343.4,42.4 345.3,41.8 346.9,40.6 C347.8,39.6 349.1,39.2 350.4,39.5 L351,39.6 C353.1,40.1 353.5,41.2 352.1,42.7 C349.8,45.5 346,47.1 341,47.1 C332.7,47.2 327.2,42.3 327.2,34.6 Z M347.5,31.9 C347.2,28.6 344.8,26.6 341,26.6 C337.4,26.6 334.8,28.5 334.4,31.9 L347.5,31.9 L347.5,31.9 Z" id="Shape" fill="#2BACE2"></path>
          <path d="M356.3,27.1 L356.3,22.8 L355.1,22.8 C354.8,22.8 354.7,22.7 354.7,22.4 L354.7,22.4 C354.7,22.2 354.8,22 355.1,22 L358.5,22 C358.8,22 358.9,22.1 358.9,22.4 L358.9,22.4 C358.9,22.6 358.8,22.8 358.5,22.8 L357.3,22.8 L357.3,27.1 C357.3,27.3 357.2,27.5 356.9,27.5 L356.7,27.5 C356.5,27.5 356.3,27.4 356.3,27.1 Z" id="Path" fill="#2BACE2"></path>
          <path d="M359.1,27.1 L360,22.4 C360,22.2 360.2,22 360.4,22.1 C360.4,22.1 360.4,22.1 360.4,22.1 L360.8,22.1 C361,22.1 361.2,22.2 361.3,22.4 L362.8,26.7 L364.3,22.4 C364.4,22.2 364.6,22.1 364.8,22.1 L365.2,22.1 C365.4,22.1 365.6,22.2 365.6,22.4 C365.6,22.4 365.6,22.4 365.6,22.4 L366.5,27.1 C366.5,27.4 366.4,27.5 366.1,27.5 L366,27.5 C365.8,27.5 365.6,27.4 365.6,27.2 L364.8,23.2 L363.3,27.2 C363.2,27.4 363,27.5 362.8,27.5 L362.6,27.5 C362.4,27.5 362.2,27.4 362.1,27.2 L360.6,23.2 L359.8,27.2 C359.8,27.4 359.6,27.6 359.4,27.5 L359.3,27.5 C359.2,27.5 359,27.4 359.1,27.1 Z" id="Path" fill="#2BACE2"></path>
          <path d="M121.7,6.3 L121.7,42.9 C121.7,46.1 119.1,48.6 116,48.6 C112.8,48.6 110.3,46 110.3,42.9 L110.3,6.3 C110.3,3.1 112.9,0.6 116,0.6 C119.1,0.6 121.7,3.1 121.7,6.3 Z" id="Path" fill="#201E55"></path>
        </g>
      </g>
    </g>
  </g>
</svg>
