<?xml version="1.0" encoding="UTF-8"?>
<svg xmlns="http://www.w3.org/2000/svg" viewBox="0 0 92.6119 22.5881">
  <defs>
    <style>.cls-1{fill:#00aeef;}.cls-2{fill:#121457;}.cls-3{fill:#fff;}</style>
  </defs>
  <g id="Layer_2" data-name="Layer 2">
    <g id="Layer_1-2" data-name="Layer 1">
      <path class="cls-1" d="M28.0394,14.6868V7.6194c0-.5141.3086-.7969.87-.7969h.3252c.5615,0,.87.2828.87.7969v2.6694H33.722V7.6194c0-.5141.3095-.7969.87-.7969h.3262c.5615,0,.87.2828.87.7969v7.0674c0,.5142-.3086.7969-.87.7969h-.3262c-.5606,0-.87-.2827-.87-.7969V11.9339H30.1048v2.7529c0,.5142-.3086.7969-.87.7969H28.91C28.348,15.4837,28.0394,15.201,28.0394,14.6868Z"></path>
      <path class="cls-1" d="M37.4759,12.0623a3.5091,3.5091,0,0,1,3.831-3.5318c2.1719,0,3.5606,1.2193,3.6963,3.1495.0381.53-.27.7968-.87.7968H39.4593a1.7687,1.7687,0,0,0,1.999,1.7715,2.3508,2.3508,0,0,0,1.5439-.4887,1.0188,1.0188,0,0,1,.9776-.3086l.1787.04c.5967.1328.6973.4375.3223.8721a3.8243,3.8243,0,0,1-3.1133,1.2319C39.012,15.595,37.4759,14.2078,37.4759,12.0623Zm3.8789-2.27a1.6856,1.6856,0,0,0-1.8613,1.4965h3.6777A1.6358,1.6358,0,0,0,41.3548,9.7923Z"></path>
      <path class="cls-1" d="M46.5579,14.6868V7.2127c0-.5142.3086-.7969.87-.7969h.2569c.56,0,.8691.2827.8691.7969v7.4741c0,.5142-.3086.7969-.8691.7969H47.428C46.8665,15.4837,46.5579,15.201,46.5579,14.6868Z"></path>
      <path class="cls-1" d="M50.36,16.9V9.4378c0-.5142.3086-.7969.87-.7969h.2432c.5478,0,.87.251.87.6816V9.79a2.69,2.69,0,0,1,2.43-1.2676A3.1707,3.1707,0,0,1,58.0394,12.05a3.1777,3.1777,0,0,1-3.2745,3.5288,2.5966,2.5966,0,0,1-2.4218-1.3V16.9c0,.5136-.3086.7964-.87.7964H51.23C50.6683,17.6966,50.36,17.4138,50.36,16.9Zm5.7-4.8457a1.8958,1.8958,0,1,0-3.7774,0,1.8948,1.8948,0,1,0,3.7774,0Z"></path>
      <path class="cls-1" d="M59.7171,14.6868V7.6194c0-.5141.3086-.7969.87-.7969h1.8281c3.8272,0,5.3164,1.4873,5.3164,4.3345,0,2.8076-1.4892,4.3267-5.3164,4.3267H60.5872C60.0257,15.4837,59.7171,15.201,59.7171,14.6868Zm5.9316-3.5459c0-1.7915-.7675-2.6533-3.1679-2.6533h-.7022v5.3149h.72C64.8812,13.8025,65.6487,12.9451,65.6487,11.1409Z"></path>
      <path class="cls-1" d="M69.0745,12.0623a3.5092,3.5092,0,0,1,3.8311-3.5318c2.1718,0,3.56,1.2193,3.6963,3.1495.038.53-.27.7968-.87.7968H71.0569a1.77,1.77,0,0,0,2,1.7715,2.3511,2.3511,0,0,0,1.544-.4887,1.0187,1.0187,0,0,1,.9775-.3086l.1787.04c.5967.1328.6973.4375.3223.8721a3.8243,3.8243,0,0,1-3.1133,1.2319C70.6106,15.595,69.0745,14.2078,69.0745,12.0623Zm3.8789-2.27a1.6857,1.6857,0,0,0-1.8613,1.4965H74.77A1.6358,1.6358,0,0,0,72.9534,9.7923Z"></path>
      <path class="cls-1" d="M78.0335,14.5452c-.4023-.4043-.3408-.8882.334-1.0151l.2012-.0376c.4023-.0762.5937.0415,1.0253.3344a2.8679,2.8679,0,0,0,1.5538.4844c.833,0,1.3408-.2866,1.3408-.7583,0-1.3725-4.5313-.3784-4.5313-2.9741,0-1.292,1.3809-2.0405,3.15-2.0405a4.4222,4.4222,0,0,1,2.8067.895c.4316.3887.3525.8647-.2745.9936l-.1709.0352c-.4834.0991-.6894-.11-1.0263-.2935a2.7427,2.7427,0,0,0-1.2979-.3759c-.7422,0-1.2392.2387-1.2392.6762,0,1.34,4.584.23,4.584,2.9175,0,1.3379-1.3428,2.2007-3.3418,2.2007A4.5625,4.5625,0,0,1,78.0335,14.5452Z"></path>
      <path class="cls-1" d="M91.87,15.4837h-.418A1.202,1.202,0,0,1,90.4,14.9778l-2.48-2.7666v2.4756c0,.5142-.3086.7969-.87.7969h-.248c-.5606,0-.8692-.2827-.8692-.7969V7.2127c0-.5142.3086-.7969.8692-.7969h.248c.5615,0,.87.2827.87.7969v4.4927L90.261,9.1385a1.1984,1.1984,0,0,1,1.044-.4976h.3867c.7354,0,.9658.4424.5215.9683l-2.27,2.3173,2.4492,2.5889C92.8274,15.0491,92.597,15.4837,91.87,15.4837Z"></path>
      <rect class="cls-2" width="22.5867" height="22.5881" rx="4.0785"></rect>
      <path class="cls-3" d="M8.2182,6.2471V16.34a1.5745,1.5745,0,1,1-3.1489,0V6.2471a1.5745,1.5745,0,0,1,3.1489,0Z"></path>
      <path class="cls-3" d="M17.5174,6.2471V16.34a1.5745,1.5745,0,1,1-3.1489,0V6.2471a1.5745,1.5745,0,0,1,3.1489,0Z"></path>
      <path class="cls-1" d="M13.0832,11.294a1.79,1.79,0,1,1-1.79-1.7894A1.79,1.79,0,0,1,13.0832,11.294Z"></path>
    </g>
  </g>
</svg>
