<?xml version="1.0" encoding="UTF-8"?>
<svg xmlns="http://www.w3.org/2000/svg" viewBox="0 0 84.9749 22.5881">
  <defs>
    <style>.cls-1{fill:#121457;}.cls-2{fill:#fff;}.cls-3{fill:#00aeef;}</style>
  </defs>
  <g id="Layer_2" data-name="Layer 2">
    <g id="Layer_1-2" data-name="Layer 1">
      <rect class="cls-1" width="22.5867" height="22.5881" rx="4.0785"></rect>
      <path class="cls-2" d="M12.7221,6.2047a1.5648,1.5648,0,0,1-.1474.6648L7.8386,17.0259a1.5745,1.5745,0,0,1-2.8541-1.33L9.7207,5.5391a1.5744,1.5744,0,0,1,3.0014.6656Z"></path>
      <circle class="cls-3" cx="15.9603" cy="16.1689" r="1.7896"></circle>
      <path class="cls-3" d="M35.2861,15.6633h-.3613a.9617.9617,0,0,1-.9913-.648l-.34-.8559H29.5078l-.335.8569a.9643.9643,0,0,1-.9941.647H27.831c-.64,0-.9228-.376-.6865-.9185L30.2314,7.634a.9871.9871,0,0,1,1.0049-.6318h.6181a.9876.9876,0,0,1,1.0049.6318L35.96,14.7429C36.1972,15.2863,35.9169,15.6633,35.2861,15.6633ZM31.5449,9.0617l-1.4795,3.7031h2.9678Z"></path>
      <path class="cls-3" d="M41.6035,9.5725l-.0166.1323c-.0606.4932-.37.6352-.9112.7207-.9873.1538-1.499.7583-1.499,2.0112v2.43c0,.5142-.3086.7969-.87.7969h-.2432c-.5615,0-.87-.2827-.87-.7969v-5.25c0-.5137.3086-.7964.87-.7964h.2432c.5615,0,.87.2412.87.7324v.3037A1.7685,1.7685,0,0,1,40.9,8.7512C41.4326,8.7512,41.6669,9.0554,41.6035,9.5725Z"></path>
      <path class="cls-3" d="M42.0947,12.2419A3.5076,3.5076,0,0,1,45.8515,8.71a3.409,3.409,0,0,1,3.2715,1.5625c.2578.4824.05.8383-.5107.9253l-.1358.0209a.9878.9878,0,0,1-1-.3852,1.9075,1.9075,0,0,0-1.5254-.6387,1.863,1.863,0,0,0-1.873,2.0469,1.86,1.86,0,0,0,1.873,2.0391,1.9434,1.9434,0,0,0,1.5078-.63.9822.9822,0,0,1,.9912-.3862l.1016.0151c.5957.0869.8115.4326.5781.8911a3.4213,3.4213,0,0,1-3.2783,1.604A3.5085,3.5085,0,0,1,42.0947,12.2419Z"></path>
      <path class="cls-3" d="M50.8759,14.8664V7.3918c0-.5137.3086-.7964.87-.7964h.2432c.5615,0,.87.2827.87.7964V9.9177a2.4614,2.4614,0,0,1,2.3076-1.2246c1.86,0,2.9.8735,2.9,3.206v2.9673c0,.5142-.3086.7969-.87.7969h-.2431c-.5616,0-.87-.2827-.87-.7969v-2.8c0-1.313-.51-1.8359-1.6211-1.8359-1.0976,0-1.6035.6186-1.6035,1.9394v2.6963c0,.5142-.3086.7969-.87.7969H51.746C51.1845,15.6633,50.8759,15.3806,50.8759,14.8664Z"></path>
      <path class="cls-3" d="M59.6142,7.0622c0-.5933.4736-.916,1.1309-.916.6,0,1.1308.3227,1.1308.916,0,.5977-.5312.9165-1.1308.9165C60.0878,7.9787,59.6142,7.66,59.6142,7.0622Zm.13,7.8042V9.6174c0-.5142.3057-.7969.8594-.7969h.2539c.5537,0,.8593.2827.8593.7969v5.249c0,.5142-.3056.7969-.8593.7969h-.2539C60.05,15.6633,59.7441,15.3806,59.7441,14.8664Z"></path>
      <path class="cls-3" d="M65.5488,15.0549l-2.44-5.312c-.25-.5435.0254-.9185.66-.9185h.3388a.9784.9784,0,0,1,.9991.6431L66.84,13.62l1.7275-4.1523a.9779.9779,0,0,1,.9981-.6431h.34c.6524,0,.9239.3794.6729.9219l-2.4541,5.311a.9981.9981,0,0,1-1.002.6138h-.5566A1.0132,1.0132,0,0,1,65.5488,15.0549Z"></path>
      <path class="cls-3" d="M71.4726,12.2419A3.5091,3.5091,0,0,1,75.3037,8.71c2.1718,0,3.56,1.2192,3.6962,3.1494.0381.53-.27.7968-.87.7968H73.455a1.77,1.77,0,0,0,2,1.7715,2.3505,2.3505,0,0,0,1.544-.4887,1.0187,1.0187,0,0,1,.9775-.3086l.1787.04c.5967.1328.6973.4375.3223.8721a3.8243,3.8243,0,0,1-3.1133,1.2319C73.0087,15.7746,71.4726,14.3874,71.4726,12.2419Zm3.8789-2.27A1.6857,1.6857,0,0,0,73.49,11.4685h3.6777A1.6358,1.6358,0,0,0,75.3515,9.9719Z"></path>
      <path class="cls-3" d="M84.9648,9.5725l-.0166.1323c-.0606.4932-.37.6352-.9111.7207-.9873.1538-1.4991.7583-1.4991,2.0112v2.43c0,.5142-.3086.7969-.87.7969h-.2431c-.5616,0-.87-.2827-.87-.7969v-5.25c0-.5137.3086-.7964.87-.7964h.2431c.5615,0,.87.2412.87.7324v.3037a1.7685,1.7685,0,0,1,1.7237-1.1054C84.7939,8.7512,85.0283,9.0554,84.9648,9.5725Z"></path>
    </g>
  </g>
</svg>
