<?xml version="1.0" encoding="UTF-8"?>
<svg xmlns="http://www.w3.org/2000/svg" viewBox="0 0 93.7825 22.5881">
  <defs>
    <style>.cls-1{fill:#00aeef;}.cls-2{fill:#121457;}.cls-3{fill:#fff;}</style>
  </defs>
  <g id="Layer_2" data-name="Layer 2">
    <g id="Layer_1-2" data-name="Layer 1">
      <path class="cls-1" d="M28.0394,14.6644V7.597c0-.5137.3086-.7969.87-.7969h.3252c.5615,0,.87.2832.87.7969v6.1836h2.6328c.5615,0,.87.2822.87.7959v.0879c0,.5136-.3086.7968-.87.7968H28.91C28.348,15.4612,28.0394,15.178,28.0394,14.6644Z"></path>
      <path class="cls-1" d="M34.2474,12.0394c0-2.2969,1.4023-3.5313,3.2656-3.5313A2.6147,2.6147,0,0,1,39.9437,9.82V9.3157c0-.4423.3173-.6972.8691-.6972h.2441c.5606,0,.8692.2832.8692.7968v5.2373c0,.5137-.3086.7969-.8692.7969h-.2441c-.5479,0-.8691-.251-.8691-.6816V14.3a2.6273,2.6273,0,0,1-2.4219,1.2881C35.6624,15.5882,34.2474,14.3411,34.2474,12.0394Zm5.7568-.0039a1.8952,1.8952,0,1,0-3.7783,0,1.8962,1.8962,0,1,0,3.7783,0Z"></path>
      <path class="cls-1" d="M50.9651,11.6976v2.9668c0,.5136-.3086.7968-.87.7968h-.2431c-.5616,0-.87-.2832-.87-.7968v-2.8c0-1.2569-.5048-1.836-1.6211-1.836-1.15,0-1.6035.6748-1.6035,1.9395v2.6963c0,.5136-.3086.7968-.87.7968h-.2431c-.5616,0-.87-.2832-.87-.7968V9.4153c0-.5136.3086-.7968.87-.7968h.2431c.5615,0,.87.2832.87.7724v.3457a2.4477,2.4477,0,0,1,2.3076-1.2207C50.0726,8.5159,50.9651,9.5355,50.9651,11.6976Z"></path>
      <path class="cls-1" d="M52.4466,11.1067A4.2212,4.2212,0,0,1,56.94,6.6946a4.1121,4.1121,0,0,1,3.6319,1.4815c.3369.4824.1162.8369-.4922.9687l-.2969.0645a1.0958,1.0958,0,0,1-1.07-.3115A2.369,2.369,0,0,0,57,8.2737c-1.4941,0-2.48,1.125-2.48,2.8526,0,1.7519.9551,2.8369,2.4707,2.8369a2.01,2.01,0,0,0,2.24-1.9834H57.6575c-.5263,0-.8213-.2637-.8213-.7334v-.0117c0-.459.3174-.7139.8692-.7139h2.792c.5527,0,.8789.1475.8789.5664v.1748c0,2.6719-1.7071,4.2871-4.4756,4.2871A4.162,4.162,0,0,1,52.4466,11.1067Z"></path>
      <path class="cls-1" d="M70.05,9.4192v5.2491c0,.5136-.31.7968-.87.7968h-.2432c-.5615,0-.87-.2832-.87-.7724V14.347a2.4493,2.4493,0,0,1-2.3086,1.2178c-2.0068,0-2.8994-1.0166-2.8994-3.1778V9.4192c0-.5136.3086-.7968.8691-.7968h.2442c.56,0,.87.2832.87.7968v2.8c0,1.2568.5049,1.8359,1.6211,1.8359,1.15,0,1.6035-.6748,1.6035-1.9395V9.4192c0-.5136.3086-.7968.87-.7968H69.18C69.7405,8.6224,70.05,8.9056,70.05,9.4192Z"></path>
      <path class="cls-1" d="M71.636,12.0394c0-2.2969,1.4024-3.5313,3.2657-3.5313A2.6146,2.6146,0,0,1,77.3323,9.82V9.3157c0-.4423.3174-.6972.8692-.6972h.2441c.5606,0,.8691.2832.8691.7968v5.2373c0,.5137-.3085.7969-.8691.7969h-.2441c-.5479,0-.8692-.251-.8692-.6816V14.3a2.6271,2.6271,0,0,1-2.4218,1.2881C73.0511,15.5882,71.636,14.3411,71.636,12.0394Zm5.7569-.0039a1.8952,1.8952,0,1,0-3.7783,0,1.8962,1.8962,0,1,0,3.7783,0Z"></path>
      <path class="cls-1" d="M85.5726,9.37l-.0166.1328c-.0606.4932-.37.6348-.9112.7207-.9873.1534-1.499.7578-1.499,2.0108v2.43c0,.5136-.3086.7968-.87.7968h-.2432c-.5615,0-.87-.2832-.87-.7968V9.4153c0-.5136.3086-.7968.87-.7968h.2432c.5615,0,.87.2412.87.7324v.3037a1.7684,1.7684,0,0,1,1.7236-1.1055C85.4017,8.5491,85.636,8.8528,85.5726,9.37Z"></path>
      <path class="cls-1" d="M86.1038,12.0394c0-2.2969,1.4024-3.5313,3.2656-3.5313A2.6054,2.6054,0,0,1,91.8,9.82V7.19c0-.5137.3086-.7969.8691-.7969h.2442c.5605,0,.8691.2832.8691.7969v7.4628c0,.5137-.3086.7969-.8691.7969h-.2442c-.5478,0-.8691-.251-.8691-.6816V14.3a2.6271,2.6271,0,0,1-2.4219,1.2881C87.5189,15.5882,86.1038,14.3411,86.1038,12.0394Zm5.7568-.0039a1.8952,1.8952,0,1,0-3.7783,0,1.8962,1.8962,0,1,0,3.7783,0Z"></path>
      <rect class="cls-2" width="22.5867" height="22.5881" rx="4.0785"></rect>
      <path class="cls-3" d="M10.1126,6.2036V16.2965a1.574,1.574,0,1,1-3.148,0V6.2036a1.574,1.574,0,0,1,3.148,0Z"></path>
      <circle class="cls-1" cx="13.8324" cy="16.1688" r="1.7896"></circle>
    </g>
  </g>
</svg>
