<?xml version="1.0" encoding="UTF-8"?>
<svg xmlns="http://www.w3.org/2000/svg" viewBox="0 0 128.216 22.5881">
  <defs>
    <style>.cls-1{fill:#00aeef;}.cls-2{fill:#121457;}.cls-3{fill:#fff;}</style>
  </defs>
  <g id="Layer_2" data-name="Layer 2">
    <g id="Layer_1-2" data-name="Layer 1">
      <path class="cls-1" d="M27.468,15.55,28.719,8.469a.8332.8332,0,0,1,.9345-.7285h.9395a.924.924,0,0,1,.9765.6758l1.9844,6.0058,1.9854-6.0058a.9233.9233,0,0,1,.9765-.6758h.94a.8334.8334,0,0,1,.9346.7285L39.64,15.55c.0966.5478-.2032.8515-.795.8515h-.3222a.8369.8369,0,0,1-.93-.7353l-.9551-5.4317L34.7649,15.73a.9311.9311,0,0,1-.98.6718h-.461a.93.93,0,0,1-.9794-.6718l-1.8731-5.4952-.9551,5.4317a.8373.8373,0,0,1-.9306.7353h-.3213C27.6721,16.4016,27.3713,16.0979,27.468,15.55Z"></path>
      <path class="cls-1" d="M40.8205,12.98c0-2.2969,1.4024-3.5313,3.2656-3.5313A2.6146,2.6146,0,0,1,46.5168,10.76v-.5039c0-.4424.3174-.6972.8691-.6972H47.63c.5605,0,.8691.2832.8691.7968V15.593c0,.5137-.3086.7969-.8691.7969h-.2442c-.5478,0-.8691-.251-.8691-.6816v-.4678a2.6271,2.6271,0,0,1-2.4219,1.2881C42.2356,16.5286,40.8205,15.2815,40.8205,12.98Zm5.7569-.0039a1.8953,1.8953,0,1,0-3.7784,0,1.8962,1.8962,0,1,0,3.7784,0Z"></path>
      <path class="cls-1" d="M50.2111,7.801c0-.5937.4737-.9169,1.1309-.9169.6,0,1.1309.3232,1.1309.9169,0,.5977-.5313.9161-1.1309.9161C50.6848,8.7171,50.2111,8.3987,50.2111,7.801Zm.13,7.8038V10.3557c0-.5136.3057-.7968.8594-.7968h.2539c.5537,0,.8594.2832.8594.7968v5.2491c0,.5136-.3057.7968-.8594.7968H51.2C50.6467,16.4016,50.341,16.1184,50.341,15.6048Z"></path>
      <path class="cls-1" d="M54.1486,15.6048V8.13c0-.5136.3086-.7968.87-.7968h.2568c.5605,0,.8691.2832.8691.7968v7.4747c0,.5136-.3086.7968-.8691.7968h-.2568C54.4572,16.4016,54.1486,16.1184,54.1486,15.6048Z"></path>
      <path class="cls-1" d="M58.0822,15.6048V8.5374c0-.5137.3086-.7969.87-.7969H63.468c.5615,0,.87.2832.87.7969v.0918c0,.5136-.3086.7968-.87.7968H60.1438v1.8682h3.09c.56,0,.8691.2627.8691.7334v.0117c0,.4737-.3086.7285-.8691.7285h-3.09V14.721H63.468c.5615,0,.87.2822.87.7959v.0879c0,.5136-.3086.7968-.87.7968H58.9524C58.3908,16.4016,58.0822,16.1184,58.0822,15.6048Z"></path>
      <path class="cls-1" d="M65.8908,15.4632c-.4023-.4043-.3408-.8887.334-1.0157l.2012-.0371c.4023-.0762.5937.041,1.0254.335a2.8676,2.8676,0,0,0,1.5537.4844c.833,0,1.3408-.2872,1.3408-.7588,0-1.3731-4.5312-.378-4.5312-2.9746,0-1.292,1.3808-2.04,3.15-2.04a4.4242,4.4242,0,0,1,2.8067.8946c.4316.3886.3525.8652-.2744.9941l-.1709.0351c-.4834.1-.69-.11-1.0264-.2929a2.7385,2.7385,0,0,0-1.2978-.377c-.7422,0-1.2393.2393-1.2393.6768,0,1.34,4.584.2295,4.584,2.917,0,1.3388-1.3428,2.2011-3.3418,2.2011A4.5607,4.5607,0,0,1,65.8908,15.4632Z"></path>
      <path class="cls-1" d="M73.7072,15.4632c-.4023-.4043-.3408-.8887.334-1.0157l.2012-.0371c.4023-.0762.5937.041,1.0254.335a2.8676,2.8676,0,0,0,1.5537.4844c.833,0,1.3408-.2872,1.3408-.7588,0-1.3731-4.5312-.378-4.5312-2.9746,0-1.292,1.3808-2.04,3.15-2.04a4.4241,4.4241,0,0,1,2.8066.8946c.4316.3886.3525.8652-.2744.9941l-.1709.0351c-.4834.1-.6895-.11-1.0264-.2929a2.7385,2.7385,0,0,0-1.2978-.377c-.7422,0-1.2393.2393-1.2393.6768,0,1.34,4.584.2295,4.584,2.917,0,1.3388-1.3428,2.2011-3.3418,2.2011A4.5607,4.5607,0,0,1,73.7072,15.4632Z"></path>
      <path class="cls-1" d="M81.2922,12.98a3.5088,3.5088,0,0,1,3.831-3.5313c2.1719,0,3.5606,1.22,3.6963,3.1494.0381.53-.27.7969-.87.7969H83.2746a1.77,1.77,0,0,0,2,1.7715,2.3453,2.3453,0,0,0,1.544-.4893,1.021,1.021,0,0,1,.9775-.3086l.1787.04c.5967.1328.6973.4384.3223.872a3.8227,3.8227,0,0,1-3.1133,1.2325C82.8283,16.513,81.2922,15.1253,81.2922,12.98Zm3.8789-2.27A1.6854,1.6854,0,0,0,83.31,12.2073h3.6777A1.6358,1.6358,0,0,0,85.1711,10.71Z"></path>
      <path class="cls-1" d="M97.5666,12.638v2.9668c0,.5136-.3086.7968-.87.7968h-.2432c-.5615,0-.87-.2832-.87-.7968v-2.8c0-1.2569-.5049-1.836-1.6211-1.836-1.15,0-1.6035.6748-1.6035,1.94v2.6963c0,.5136-.3086.7968-.87.7968h-.2432c-.5615,0-.87-.2832-.87-.7968V10.3557c0-.5136.3086-.7968.87-.7968h.2432c.5615,0,.87.2832.87.7724v.3457a2.4476,2.4476,0,0,1,2.3076-1.2207C96.674,9.4563,97.5666,10.4759,97.5666,12.638Z"></path>
      <path class="cls-1" d="M99.5305,13.6741V10.9329h-.3194a.6492.6492,0,0,1-.73-.6924.61.61,0,0,1,.669-.6816h.38V9.0081c0-.4776.2422-.7256.81-.8369l.23-.045c.667-.13.957.11.957.6817v.751h1.1768c.6045,0,.87.2392.87.6816,0,.4453-.2656.6924-.87.6924h-1.1768V13.511c0,1.1309.36,1.541,1.2881,1.5723.47.0146.7725.2041.7979.6142.0273.4492-.1963.7412-.7481.792-.1289.0117-.2568.0156-.375.0156C100.4621,16.5051,99.5305,15.76,99.5305,13.6741Z"></path>
      <path class="cls-1" d="M104.7844,7.801c0-.5937.4736-.9169,1.1308-.9169.6,0,1.1309.3232,1.1309.9169,0,.5977-.5312.9161-1.1309.9161C105.258,8.7171,104.7844,8.3987,104.7844,7.801Zm.13,7.8038V10.3557c0-.5136.3056-.7968.8593-.7968h.2539c.5538,0,.8594.2832.8594.7968v5.2491c0,.5136-.3056.7968-.8594.7968h-.2539C105.22,16.4016,104.9143,16.1184,104.9143,15.6048Z"></path>
      <path class="cls-1" d="M108.4621,12.98c0-2.2969,1.4024-3.5313,3.2656-3.5313a2.6146,2.6146,0,0,1,2.4307,1.3115v-.5039c0-.4424.3174-.6972.8691-.6972h.2442c.5605,0,.8691.2832.8691.7968V15.593c0,.5137-.3086.7969-.8691.7969h-.2442c-.5478,0-.8691-.251-.8691-.6816v-.4678a2.6271,2.6271,0,0,1-2.4219,1.2881C109.8772,16.5286,108.4621,15.2815,108.4621,12.98Zm5.7569-.0039a1.8953,1.8953,0,1,0-3.7784,0,1.8962,1.8962,0,1,0,3.7784,0Z"></path>
      <path class="cls-1" d="M117.9885,15.6048V8.13c0-.5136.3086-.7968.87-.7968h.2568c.5606,0,.8692.2832.8692.7968v7.4747c0,.5136-.3086.7968-.8692.7968h-.2568C118.2971,16.4016,117.9885,16.1184,117.9885,15.6048Z"></path>
      <path class="cls-1" d="M121.76,15.4632c-.4024-.4043-.3409-.8887.334-1.0157l.2011-.0371c.4024-.0762.5938.041,1.0254.335a2.8676,2.8676,0,0,0,1.5537.4844c.833,0,1.3408-.2872,1.3408-.7588,0-1.3731-4.5312-.378-4.5312-2.9746,0-1.292,1.3809-2.04,3.15-2.04a4.4241,4.4241,0,0,1,2.8066.8946c.4317.3886.3526.8652-.2744.9941l-.1709.0351c-.4834.1-.6894-.11-1.0264-.2929a2.7381,2.7381,0,0,0-1.2978-.377c-.7422,0-1.2393.2393-1.2393.6768,0,1.34,4.584.2295,4.584,2.917,0,1.3388-1.3428,2.2011-3.3418,2.2011A4.56,4.56,0,0,1,121.76,15.4632Z"></path>
      <rect class="cls-2" width="22.5867" height="22.5881" rx="4.0785"></rect>
      <path class="cls-3" d="M16.2517,6.58a1.4118,1.4118,0,0,1-.133.6l-4.2744,9.1662A1.4205,1.4205,0,1,1,9.2694,15.145l4.2743-9.1661a1.42,1.42,0,0,1,2.708.6007Z"></path>
      <path class="cls-3" d="M10.966,6.58a1.4128,1.4128,0,0,1-.1338.6L6.5578,16.3457A1.4205,1.4205,0,1,1,3.9829,15.145L8.2572,5.9789A1.4209,1.4209,0,0,1,10.966,6.58Z"></path>
      <path class="cls-1" d="M18.7372,15.64a1.79,1.79,0,1,1-1.79-1.7894A1.79,1.79,0,0,1,18.7372,15.64Z"></path>
    </g>
  </g>
</svg>
