<?xml version="1.0" encoding="UTF-8"?>
<svg xmlns="http://www.w3.org/2000/svg" viewBox="0 0 113.2425 22.5881">
  <defs>
    <style>.cls-1{fill:#121457;}.cls-2{fill:#fff;}.cls-3{fill:#ef4136;}</style>
  </defs>
  <g id="Layer_2" data-name="Layer 2">
    <g id="Layer_1-2" data-name="Layer 1">
      <rect class="cls-1" width="22.5867" height="22.5881" rx="4.0785"></rect>
      <path class="cls-2" d="M8.8027,17.7263l.0246-.0289.0183-.0232.0312-.0406.0039-.0051L16.25,7.5266a1.5743,1.5743,0,0,0-.3441-2.2h0a1.5742,1.5742,0,0,0-2.2.3441L9.183,11.8716V6.608A1.5742,1.5742,0,0,0,7.6088,5.0338h0A1.5742,1.5742,0,0,0,6.0346,6.608V16.7009l0,.0086.001.04.0015.041.0016.0214a1.5634,1.5634,0,0,0,.1776.6237l.0055.0108.023.04.0161.0281.014.0221c.0093.0148.0184.03.0282.0439l.002.0029a1.5653,1.5653,0,0,0,.1845.2242l.0062.0064.0237.0227.0343.0323.0131.0114c.0159.014.032.0279.0484.0413l.0071.0055c.0188.0151.0378.03.0573.0441l.0013.001h0l.0037.0026c.02.0144.04.0285.0608.042l.0069.0044q.03.0192.06.0371l.01.0058c.019.011.0381.0216.0575.0317l.014.0072c.0181.0092.0363.0181.0548.0267l.0179.0081c.0171.0076.0345.0151.052.0222l.0216.0085.0494.0182.0252.0086.047.0147.0288.0082.0443.0115.0327.0075.0413.0087.0369.0065.0381.0061.0412.0052.0351.0038.0448.0034.0328.002.0462.0012.0246.0006h0l.0087,0,.0405-.001.04-.0015.0237-.0018a1.5655,1.5655,0,0,0,.5579-.1455l.0059-.0027.0437-.022.027-.0139.0225-.0127c.0154-.0087.0309-.0174.0461-.0266l.0007,0a1.5615,1.5615,0,0,0,.3413-.28l.0078-.0082Z"></path>
      <path class="cls-3" d="M14.7625,14.7837a1.79,1.79,0,1,0,1.79,1.79A1.79,1.79,0,0,0,14.7625,14.7837Z"></path>
      <path class="cls-3" d="M28.0394,14.4687V7.4013c0-.5137.3086-.7969.87-.7969h.3213c.5615,0,.87.2832.87.7969v2.78l2.8984-3.0791a1.39,1.39,0,0,1,1.0869-.4981h.4922c.7783,0,1.0625.4063.5127.9717L32.01,10.704l3.2421,3.5977c.52.5811.2745.9639-.4472.9639h-.5742a1.3459,1.3459,0,0,1-1.0879-.5137l-3.042-3.53v3.2471c0,.5137-.3086.7969-.87.7969H28.91C28.348,15.2656,28.0394,14.9824,28.0394,14.4687Z"></path>
      <path class="cls-3" d="M36.0774,11.8447a3.51,3.51,0,0,1,3.8311-3.5323c2.1719,0,3.5605,1.22,3.6963,3.1495.0381.53-.27.7968-.87.7968H38.0608A1.7688,1.7688,0,0,0,40.06,14.03a2.3457,2.3457,0,0,0,1.5439-.4892,1.0208,1.0208,0,0,1,.9776-.3086l.1787.04c.5966.1328.6972.4385.3222.8721a3.823,3.823,0,0,1-3.1133,1.2324C37.6136,15.3769,36.0774,13.9892,36.0774,11.8447Zm3.879-2.27a1.6854,1.6854,0,0,0-1.8614,1.497h3.6778A1.6359,1.6359,0,0,0,39.9564,9.5742Z"></path>
      <path class="cls-3" d="M49.57,9.1747l-.0166.1329c-.06.4931-.3711.6347-.9111.7207-.9873.1533-1.499.7578-1.499,2.0107v2.43c0,.5137-.3086.7969-.87.7969H46.03c-.5615,0-.87-.2832-.87-.7969V9.22c0-.5137.3086-.7969.87-.7969h.2432c.5615,0,.87.2412.87.7324v.3037a1.7682,1.7682,0,0,1,1.7236-1.1054C49.3987,8.3535,49.6331,8.6572,49.57,9.1747Z"></path>
      <path class="cls-3" d="M50.6292,6.665c0-.5938.4736-.917,1.1309-.917.6,0,1.1308.3232,1.1308.917,0,.5976-.5312.916-1.1308.916C51.1028,7.581,50.6292,7.2626,50.6292,6.665Zm.13,7.8037V9.22c0-.5137.3056-.7969.8594-.7969h.2539c.5537,0,.8593.2832.8593.7969v5.249c0,.5137-.3056.7969-.8593.7969h-.2539C51.0647,15.2656,50.7591,14.9824,50.7591,14.4687Z"></path>
      <path class="cls-3" d="M54.3069,11.8447c0-2.4649,1.9112-3.5323,3.8614-3.5323S62.03,9.38,62.03,11.8447c0,2.4882-1.9024,3.5478-3.8613,3.5478C56.2132,15.3925,54.3069,14.3329,54.3069,11.8447Zm5.7442-.0049a1.8912,1.8912,0,1,0-3.77,0,1.8922,1.8922,0,1,0,3.77,0Z"></path>
      <path class="cls-3" d="M63.3714,10.9589a4.2318,4.2318,0,0,1,4.52-4.4443,4.1626,4.1626,0,0,1,3.9883,2.251c.2461.53.0117.8838-.5566.9736l-.31.0478a.87.87,0,0,1-1.041-.4062,2.3246,2.3246,0,0,0-2.086-1.1553c-1.4336,0-2.3877,1.0576-2.3877,2.7334,0,1.68.9414,2.7139,2.3877,2.7139a2.2782,2.2782,0,0,0,2.0909-1.1885.9071.9071,0,0,1,1.0527-.417l.31.0479c.6.0937.7734.5176.4228,1.206a4.5709,4.5709,0,0,1-8.3906-2.3623Z"></path>
      <path class="cls-3" d="M73.3089,11.8447c0-2.4649,1.9111-3.5323,3.8613-3.5323s3.8613,1.0674,3.8613,3.5323c0,2.4882-1.9023,3.5478-3.8613,3.5478C75.2151,15.3925,73.3089,14.3329,73.3089,11.8447ZM79.053,11.84a1.8912,1.8912,0,1,0-3.7695,0,1.8922,1.8922,0,1,0,3.7695,0Z"></path>
      <path class="cls-3" d="M89.7649,11.5019v2.9668c0,.5137-.3085.7969-.87.7969h-.2431c-.5616,0-.87-.2832-.87-.7969v-2.8c0-1.2569-.5048-1.836-1.621-1.836-1.15,0-1.6036.6749-1.6036,1.9395v2.6963c0,.5137-.3086.7969-.87.7969h-.2431c-.5616,0-.87-.2832-.87-.7969V9.22c0-.5137.3086-.7969.87-.7969h.2431c.5615,0,.87.2832.87.7725V9.541A2.4476,2.4476,0,0,1,86.8646,8.32C88.8724,8.32,89.7649,9.34,89.7649,11.5019Z"></path>
      <path class="cls-3" d="M91.7308,12.538V9.7968h-.3194a.6492.6492,0,0,1-.73-.6924.61.61,0,0,1,.669-.6816h.38V7.872c0-.4775.2422-.7256.8105-.8369l.2295-.0449c.667-.13.957.11.957.6816v.751h1.1768c.6045,0,.87.2392.87.6816,0,.4453-.2656.6924-.87.6924H93.7278v2.5781c0,1.1309.36,1.5411,1.2881,1.5723.47.0147.7725.2041.7979.6143.0273.4492-.1963.7412-.7481.792-.1289.0117-.2568.0156-.375.0156C92.6624,15.3691,91.7308,14.624,91.7308,12.538Z"></path>
      <path class="cls-3" d="M101.4905,9.1747l-.0166.1329c-.0605.4931-.37.6347-.9111.7207-.9873.1533-1.499.7578-1.499,2.0107v2.43c0,.5137-.3086.7969-.87.7969h-.2432c-.5615,0-.87-.2832-.87-.7969V9.22c0-.5137.3086-.7969.87-.7969h.2432c.5615,0,.87.2412.87.7324v.3037a1.7682,1.7682,0,0,1,1.7236-1.1054C101.32,8.3535,101.554,8.6572,101.4905,9.1747Z"></path>
      <path class="cls-3" d="M101.9817,11.8447c0-2.4649,1.9112-3.5323,3.8614-3.5323s3.8613,1.0674,3.8613,3.5323c0,2.4882-1.9023,3.5478-3.8613,3.5478C103.888,15.3925,101.9817,14.3329,101.9817,11.8447Zm5.7442-.0049a1.8912,1.8912,0,1,0-3.7695,0,1.8922,1.8922,0,1,0,3.7695,0Z"></path>
      <path class="cls-3" d="M111.2464,14.4687V6.9941c0-.5137.3086-.7959.87-.7959h.2568c.5606,0,.8692.2822.8692.7959v7.4746c0,.5137-.3086.7969-.8692.7969h-.2568C111.555,15.2656,111.2464,14.9824,111.2464,14.4687Z"></path>
    </g>
  </g>
</svg>
