<?xml version="1.0" encoding="UTF-8"?>
<svg xmlns="http://www.w3.org/2000/svg" viewBox="0 0 122.0963 22.5881">
  <defs>
    <style>.cls-1{fill:#121457;}.cls-2{fill:#ef4136;}.cls-3{fill:#fff;}</style>
  </defs>
  <g id="Layer_2" data-name="Layer 2">
    <g id="Layer_1-2" data-name="Layer 1">
      <rect class="cls-1" width="22.5867" height="22.5881" rx="4.0785"></rect>
      <path class="cls-2" d="M28.0394,14.4693V7.4019c0-.5137.3086-.7969.87-.7969h.3213c.5615,0,.87.2832.87.7969v2.78l2.8984-3.0791a1.39,1.39,0,0,1,1.0869-.4981h.4922c.7783,0,1.0625.4063.5127.9717L32.01,10.7046l3.2421,3.5977c.52.581.2745.9638-.4472.9638h-.5742a1.3458,1.3458,0,0,1-1.0879-.5136l-3.042-3.53v3.2471c0,.5136-.3086.7968-.87.7968H28.91C28.348,15.2661,28.0394,14.9829,28.0394,14.4693Z"></path>
      <path class="cls-2" d="M36.0774,11.8452A3.51,3.51,0,0,1,39.9085,8.313c2.1719,0,3.5605,1.22,3.6963,3.1494.0381.53-.27.7969-.87.7969H38.0608A1.7688,1.7688,0,0,0,40.06,14.0308a2.3452,2.3452,0,0,0,1.5439-.4893,1.0213,1.0213,0,0,1,.9776-.3086l.1787.04c.5966.1328.6972.4385.3222.8721a3.823,3.823,0,0,1-3.1133,1.2324C37.6136,15.3775,36.0774,13.99,36.0774,11.8452Zm3.879-2.27a1.6855,1.6855,0,0,0-1.8614,1.4971h3.6778A1.636,1.636,0,0,0,39.9564,9.5747Z"></path>
      <path class="cls-2" d="M49.57,9.1753l-.0166.1328c-.06.4932-.3711.6348-.9111.7207-.9873.1534-1.499.7579-1.499,2.0108v2.43c0,.5136-.3086.7968-.87.7968H46.03c-.5615,0-.87-.2832-.87-.7968V9.22c0-.5136.3086-.7968.87-.7968h.2432c.5615,0,.87.2412.87.7324V9.46A1.7683,1.7683,0,0,1,48.8665,8.354C49.3987,8.354,49.6331,8.6577,49.57,9.1753Z"></path>
      <path class="cls-2" d="M50.6292,6.6656c0-.5938.4736-.917,1.1309-.917.6,0,1.1308.3232,1.1308.917,0,.5976-.5312.916-1.1308.916C51.1028,7.5816,50.6292,7.2632,50.6292,6.6656Zm.13,7.8037V9.22c0-.5136.3056-.7968.8594-.7968h.2539c.5537,0,.8593.2832.8593.7968v5.2491c0,.5136-.3056.7968-.8593.7968h-.2539C51.0647,15.2661,50.7591,14.9829,50.7591,14.4693Z"></path>
      <path class="cls-2" d="M54.3069,11.8452c0-2.4648,1.9112-3.5322,3.8614-3.5322S62.03,9.38,62.03,11.8452c0,2.4883-1.9024,3.5479-3.8613,3.5479C56.2132,15.3931,54.3069,14.3335,54.3069,11.8452Zm5.7442-.0048a1.8912,1.8912,0,1,0-3.77,0,1.8922,1.8922,0,1,0,3.77,0Z"></path>
      <path class="cls-2" d="M63.3714,10.96a4.2318,4.2318,0,0,1,4.52-4.4443,4.1627,4.1627,0,0,1,3.9883,2.2509c.2461.53.0117.8838-.5566.9737l-.31.0478a.87.87,0,0,1-1.041-.4062,2.3246,2.3246,0,0,0-2.086-1.1553c-1.4336,0-2.3877,1.0576-2.3877,2.7334,0,1.68.9414,2.7139,2.3877,2.7139a2.2782,2.2782,0,0,0,2.0909-1.1885.9071.9071,0,0,1,1.0527-.417l.31.0479c.6.0937.7734.5175.4228,1.206A4.5709,4.5709,0,0,1,63.3714,10.96Z"></path>
      <path class="cls-2" d="M73.3089,11.8452C73.3089,9.38,75.22,8.313,77.17,8.313s3.8613,1.0674,3.8613,3.5322c0,2.4883-1.9023,3.5479-3.8613,3.5479C75.2151,15.3931,73.3089,14.3335,73.3089,11.8452ZM79.053,11.84a1.8912,1.8912,0,1,0-3.7695,0,1.8922,1.8922,0,1,0,3.7695,0Z"></path>
      <path class="cls-2" d="M89.7649,11.5025v2.9668c0,.5136-.3085.7968-.87.7968h-.2431c-.5616,0-.87-.2832-.87-.7968v-2.8c0-1.2569-.5048-1.836-1.621-1.836-1.15,0-1.6036.6748-1.6036,1.9395v2.6963c0,.5136-.3086.7968-.87.7968h-.2431c-.5616,0-.87-.2832-.87-.7968V9.22c0-.5136.3086-.7968.87-.7968h.2431c.5615,0,.87.2832.87.7724v.3457a2.4478,2.4478,0,0,1,2.3077-1.2207C88.8724,8.3208,89.7649,9.34,89.7649,11.5025Z"></path>
      <path class="cls-2" d="M98.639,11.5025v2.9668c0,.5136-.3086.7968-.87.7968h-.2432c-.5615,0-.87-.2832-.87-.7968v-2.8c0-1.2569-.5049-1.836-1.6211-1.836-1.15,0-1.6035.6748-1.6035,1.9395v2.6963c0,.5136-.3086.7968-.87.7968h-.2431c-.5615,0-.87-.2832-.87-.7968V9.22c0-.5136.3086-.7968.87-.7968h.2431c.5616,0,.87.2832.87.7724v.3457a2.4477,2.4477,0,0,1,2.3076-1.2207C97.7464,8.3208,98.639,9.34,98.639,11.5025Z"></path>
      <path class="cls-2" d="M100.06,11.8452a3.51,3.51,0,0,1,3.831-3.5322c2.1719,0,3.5606,1.22,3.6963,3.1494.0381.53-.27.7969-.87.7969h-4.6738a1.7686,1.7686,0,0,0,1.999,1.7715,2.345,2.345,0,0,0,1.5439-.4893,1.0213,1.0213,0,0,1,.9776-.3086l.1787.04c.5967.1328.6972.4385.3222.8721a3.8227,3.8227,0,0,1-3.1132,1.2324C101.596,15.3775,100.06,13.99,100.06,11.8452Zm3.8789-2.27a1.6855,1.6855,0,0,0-1.8614,1.4971h3.6778A1.6358,1.6358,0,0,0,103.9388,9.5747Z"></path>
      <path class="cls-2" d="M108.8812,11.8452A3.5078,3.5078,0,0,1,112.638,8.313,3.409,3.409,0,0,1,115.91,9.8755c.2578.4824.05.8389-.5108.9248l-.1357.0215a.9872.9872,0,0,1-1-.3857,1.9087,1.9087,0,0,0-1.5254-.6387,1.8642,1.8642,0,0,0-1.874,2.0478,1.8615,1.8615,0,0,0,1.874,2.0391,1.942,1.942,0,0,0,1.5078-.6308.9835.9835,0,0,1,.9912-.3868l.1016.0157c.5957.0869.8115.4326.5781.8906a3.421,3.421,0,0,1-3.2783,1.6045A3.5084,3.5084,0,0,1,108.8812,11.8452Z"></path>
      <path class="cls-2" d="M118.011,12.5386V9.7974h-.3193a.6492.6492,0,0,1-.73-.6924.61.61,0,0,1,.669-.6816h.38V7.8726c0-.4775.2422-.7256.8106-.8369l.23-.0449c.667-.13.957.11.957.6816v.751h1.1768c.6045,0,.87.2392.87.6816,0,.4453-.2656.6924-.87.6924h-1.1768v2.5781c0,1.1309.36,1.541,1.2881,1.5723.47.0146.7725.2041.7978.6142.0274.4493-.1962.7413-.748.792-.1289.0118-.2568.0157-.375.0157C118.9427,15.37,118.011,14.6245,118.011,12.5386Z"></path>
      <path class="cls-2" d="M14.9534,14.097a1.79,1.79,0,1,0,1.79,1.79A1.79,1.79,0,0,0,14.9534,14.097Z"></path>
      <path class="cls-2" d="M7.86,4.026a1.79,1.79,0,1,0,1.79,1.79A1.79,1.79,0,0,0,7.86,4.026Z"></path>
      <path class="cls-3" d="M8.9935,17.04l.0247-.0289.0182-.0232.0313-.0407.0039-.005L16.4405,6.84a1.5742,1.5742,0,0,0-.3441-2.2h0a1.5741,1.5741,0,0,0-2.1995.3441l-4.523,6.2005V9.7485A1.5742,1.5742,0,0,0,7.8,8.1743h0A1.5742,1.5742,0,0,0,6.2254,9.7485v6.2657l0,.0086.001.04.0014.041.0016.0214a1.5651,1.5651,0,0,0,.1777.6237l.0055.0107.0229.0405.0161.0281.0141.0221c.0092.0147.0184.0294.0281.0439l.0021.0029a1.5641,1.5641,0,0,0,.1845.2242l.0061.0064.0238.0226.0343.0324.0131.0114c.0159.014.0319.0278.0484.0412l.0071.0056q.028.0226.0573.0441l.0012.001h0l.0038.0026c.02.0144.04.0285.0608.042l.0069.0044q.0294.0192.06.037l.01.0059q.0284.0163.0575.0317l.014.0072c.018.0092.0363.0181.0547.0267l.0179.008c.0172.0077.0345.0152.0521.0222l.0215.0086.05.0182.0252.0085.0469.0148.0289.0081.0442.0116.0327.0075L7.5,17.56l.0369.0066.0381.0061.0412.0052.035.0038.0448.0034.0329.002.0462.0012.0246.0006h0l.0086,0,.0406-.0011.04-.0014.0238-.0018a1.5655,1.5655,0,0,0,.5578-.1455l.006-.0027.0436-.0221L8.5473,17.4l.0224-.0127c.0155-.0087.031-.0174.0462-.0266l.0007,0a1.5667,1.5667,0,0,0,.3413-.28l.0078-.0083Z"></path>
    </g>
  </g>
</svg>
